<?xml version="1.0" encoding="UTF-8" standalone="no"?>
<!DOCTYPE svg PUBLIC "-//W3C//DTD SVG 1.1//EN"
 "http://www.w3.org/Graphics/SVG/1.1/DTD/svg11.dtd">
<!-- Generated by graphviz version 2.43.0 (0)
 -->
<!-- Title: SlashCommandManager Pages: 1 -->
<svg width="426pt" height="126pt"
 viewBox="0.00 0.00 426.00 126.00" xmlns="http://www.w3.org/2000/svg" xmlns:xlink="http://www.w3.org/1999/xlink">
<g id="graph0" class="graph" transform="scale(1 1) rotate(0) translate(4 122)">
<title>SlashCommandManager</title>
<!-- Node1 -->
<g id="Node000001" class="node">
<title>Node1</title>
<g id="a_Node000001"><a xlink:title=" ">
<polygon fill="#999999" stroke="#666666" points="418,-69.5 282,-69.5 282,-50.5 418,-50.5 418,-69.5"/>
<text text-anchor="middle" x="350" y="-57.5" font-family="Helvetica,sans-Serif" font-size="10.00">SlashCommandManager</text>
</a>
</g>
</g>
<!-- Node2 -->
<g id="Node000002" class="node">
<title>Node2</title>
<g id="a_Node000002"><a xlink:title=" ">
<polygon fill="white" stroke="#666666" points="162,-118 0,-118 0,-88 162,-88 162,-118"/>
<text text-anchor="start" x="8" y="-106" font-family="Helvetica,sans-Serif" font-size="10.00">InteractionModuleBase</text>
<text text-anchor="middle" x="81" y="-95" font-family="Helvetica,sans-Serif" font-size="10.00">&lt; SocketInteractionContext &gt;</text>
</a>
</g>
</g>
<!-- Node2&#45;&gt;Node1 -->
<g id="edge1_Node000001_Node000002" class="edge">
<title>Node2&#45;&gt;Node1</title>
<g id="a_edge1_Node000001_Node000002"><a xlink:title=" ">
<path fill="none" stroke="#8b1a1a" d="M172.44,-89.49C201.68,-85.01 234.23,-79.92 264,-75 274.35,-73.29 285.39,-71.39 295.98,-69.54"/>
<polygon fill="#8b1a1a" stroke="#8b1a1a" points="171.6,-86.08 162.24,-91.04 172.66,-93 171.6,-86.08"/>
</a>
</g>
</g>
<!-- Node3 -->
<g id="Node000003" class="node">
<title>Node3</title>
<g id="a_Node000003"><a xlink:href="classDiscordManager.html" target="_top" xlink:title="Service responsible for managing the lifecycle of Discord interactions and bridging them with the Aut...">
<polygon fill="white" stroke="#666666" points="129,-69.5 33,-69.5 33,-50.5 129,-50.5 129,-69.5"/>
<text text-anchor="middle" x="81" y="-57.5" font-family="Helvetica,sans-Serif" font-size="10.00">DiscordManager</text>
</a>
</g>
</g>
<!-- Node3&#45;&gt;Node1 -->
<g id="edge2_Node000001_Node000003" class="edge">
<title>Node3&#45;&gt;Node1</title>
<g id="a_edge2_Node000001_Node000003"><a xlink:title=" ">
<path fill="none" stroke="#9a32cd" stroke-dasharray="5,2" d="M139.14,-60C180.95,-60 237.82,-60 281.81,-60"/>
<polygon fill="#9a32cd" stroke="#9a32cd" points="139.12,-56.5 129.12,-60 139.12,-63.5 139.12,-56.5"/>
</a>
</g>
<text text-anchor="middle" x="222" y="-63" font-family="Helvetica,sans-Serif" font-size="10.00" fill="grey"> Manager</text>
</g>
<!-- Node4 -->
<g id="Node000004" class="node">
<title>Node4</title>
<g id="a_Node000004"><a xlink:href="classSlashCommandManager_1_1PendingMatch.html" target="_top" xlink:title=" ">
<polygon fill="white" stroke="#666666" points="149,-30 13,-30 13,0 149,0 149,-30"/>
<text text-anchor="start" x="21" y="-18" font-family="Helvetica,sans-Serif" font-size="10.00">SlashCommandManager</text>
<text text-anchor="middle" x="81" y="-7" font-family="Helvetica,sans-Serif" font-size="10.00">::PendingMatch</text>
</a>
</g>
</g>
<!-- Node4&#45;&gt;Node1 -->
<g id="edge3_Node000001_Node000004" class="edge">
<title>Node4&#45;&gt;Node1</title>
<g id="a_edge3_Node000001_Node000004"><a xlink:title=" ">
<path fill="none" stroke="#9a32cd" stroke-dasharray="5,2" d="M159.38,-19.77C191.91,-22.62 230.01,-27.09 264,-34 283.96,-38.06 305.94,-44.84 322.54,-50.46"/>
<polygon fill="#9a32cd" stroke="#9a32cd" points="159.29,-16.25 149.03,-18.89 158.7,-23.22 159.29,-16.25"/>
</a>
</g>
<text text-anchor="middle" x="222" y="-48" font-family="Helvetica,sans-Serif" font-size="10.00" fill="grey"> PendingMatches</text>
<text text-anchor="middle" x="222" y="-37" font-family="Helvetica,sans-Serif" font-size="10.00" fill="grey">string</text>
</g>
</g>
</svg>
