<?xml version="1.0" encoding="UTF-8" standalone="no"?>
<!DOCTYPE svg PUBLIC "-//W3C//DTD SVG 1.1//EN"
 "http://www.w3.org/Graphics/SVG/1.1/DTD/svg11.dtd">
<!-- Generated by graphviz version 2.43.0 (0)
 -->
<!-- Title: AutoRefEliminationStage Pages: 1 -->
<svg width="267pt" height="192pt"
 viewBox="0.00 0.00 267.00 192.00" xmlns="http://www.w3.org/2000/svg" xmlns:xlink="http://www.w3.org/1999/xlink">
<g id="graph0" class="graph" transform="scale(1 1) rotate(0) translate(4 188)">
<title>AutoRefEliminationStage</title>
<!-- Node1 -->
<g id="Node000001" class="node">
<title>Node1</title>
<g id="a_Node000001"><a xlink:title="Handles the automated refereeing logic for Elimination/Versus matches. Implements a complex State Mac...">
<polygon fill="#999999" stroke="#666666" points="139,-19 0,-19 0,0 139,0 139,-19"/>
<text text-anchor="middle" x="69.5" y="-7" font-family="Helvetica,sans-Serif" font-size="10.00">AutoRefEliminationStage</text>
</a>
</g>
</g>
<!-- Node2 -->
<g id="Node000002" class="node">
<title>Node2</title>
<g id="a_Node000002"><a xlink:title=" ">
<polygon fill="white" stroke="#666666" points="83,-118 24,-118 24,-99 83,-99 83,-118"/>
<text text-anchor="middle" x="53.5" y="-106" font-family="Helvetica,sans-Serif" font-size="10.00">IAutoRef</text>
</a>
</g>
</g>
<!-- Node2&#45;&gt;Node1 -->
<g id="edge1_Node000001_Node000002" class="edge">
<title>Node2&#45;&gt;Node1</title>
<g id="a_edge1_Node000001_Node000002"><a xlink:title=" ">
<path fill="none" stroke="#8b1a1a" d="M56.56,-88.97C60.01,-68.05 65.48,-34.88 68.06,-19.23"/>
<polygon fill="#8b1a1a" stroke="#8b1a1a" points="53.09,-88.46 54.92,-98.89 60,-89.59 53.09,-88.46"/>
</a>
</g>
</g>
<!-- Node3 -->
<g id="Node000003" class="node">
<title>Node3</title>
<g id="a_Node000003"><a xlink:href="classModels.html" target="_top" xlink:title="Container for all Entity Framework Core data models.">
<polygon fill="white" stroke="#666666" points="153.5,-118 101.5,-118 101.5,-99 153.5,-99 153.5,-118"/>
<text text-anchor="middle" x="127.5" y="-106" font-family="Helvetica,sans-Serif" font-size="10.00">Models</text>
</a>
</g>
</g>
<!-- Node3&#45;&gt;Node1 -->
<g id="edge2_Node000001_Node000003" class="edge">
<title>Node3&#45;&gt;Node1</title>
<g id="a_edge2_Node000001_Node000003"><a xlink:title=" ">
<path fill="none" stroke="#9a32cd" stroke-dasharray="5,2" d="M117.1,-90.11C104.64,-69.27 84.25,-35.17 74.72,-19.23"/>
<polygon fill="#9a32cd" stroke="#9a32cd" points="114.22,-92.11 122.35,-98.89 120.22,-88.51 114.22,-92.11"/>
</a>
</g>
<text text-anchor="middle" x="144.5" y="-73" font-family="Helvetica,sans-Serif" font-size="10.00" fill="grey"> currentMatch</text>
<text text-anchor="middle" x="144.5" y="-62" font-family="Helvetica,sans-Serif" font-size="10.00" fill="grey">firstBan</text>
<text text-anchor="middle" x="144.5" y="-51" font-family="Helvetica,sans-Serif" font-size="10.00" fill="grey">firstPick</text>
<text text-anchor="middle" x="144.5" y="-40" font-family="Helvetica,sans-Serif" font-size="10.00" fill="grey">lastPick</text>
</g>
<!-- Node4 -->
<g id="Node000004" class="node">
<title>Node4</title>
<g id="a_Node000004"><a xlink:href="classModels_1_1Round.html" target="_top" xlink:title="Represents a stage of the tournament (e.g., &quot;Round of 16&quot;, &quot;Qualifiers&quot;).">
<polygon fill="white" stroke="#666666" points="108,-184 19,-184 19,-165 108,-165 108,-184"/>
<text text-anchor="middle" x="63.5" y="-172" font-family="Helvetica,sans-Serif" font-size="10.00">Models::Round</text>
</a>
</g>
</g>
<!-- Node4&#45;&gt;Node3 -->
<g id="edge3_Node000003_Node000004" class="edge">
<title>Node4&#45;&gt;Node3</title>
<g id="a_edge3_Node000003_Node000004"><a xlink:title=" ">
<path fill="none" stroke="#9a32cd" stroke-dasharray="5,2" d="M79.52,-157.48C91.88,-145.12 108.51,-128.49 118.59,-118.41"/>
<polygon fill="#9a32cd" stroke="#9a32cd" points="76.73,-155.32 72.13,-164.87 81.68,-160.27 76.73,-155.32"/>
</a>
</g>
<text text-anchor="middle" x="116.5" y="-139" font-family="Helvetica,sans-Serif" font-size="10.00" fill="grey"> Round</text>
</g>
<!-- Node5 -->
<g id="Node000005" class="node">
<title>Node5</title>
<g id="a_Node000005"><a xlink:href="classModels_1_1RoundBeatmap.html" target="_top" xlink:title=" ">
<polygon fill="white" stroke="#666666" points="259,-184 126,-184 126,-165 259,-165 259,-184"/>
<text text-anchor="middle" x="192.5" y="-172" font-family="Helvetica,sans-Serif" font-size="10.00">Models::RoundBeatmap</text>
</a>
</g>
</g>
<!-- Node5&#45;&gt;Node3 -->
<g id="edge4_Node000003_Node000005" class="edge">
<title>Node5&#45;&gt;Node3</title>
<g id="a_edge4_Node000003_Node000005"><a xlink:title=" ">
<path fill="none" stroke="#9a32cd" stroke-dasharray="5,2" d="M176.58,-157.83C164,-145.44 146.88,-128.59 136.54,-118.41"/>
<polygon fill="#9a32cd" stroke="#9a32cd" points="174.15,-160.35 183.73,-164.87 179.06,-155.36 174.15,-160.35"/>
</a>
</g>
<text text-anchor="middle" x="173" y="-139" font-family="Helvetica,sans-Serif" font-size="10.00" fill="grey"> get</text>
</g>
</g>
</svg>
