<?xml version="1.0" encoding="UTF-8" standalone="no"?>
<!DOCTYPE svg PUBLIC "-//W3C//DTD SVG 1.1//EN"
 "http://www.w3.org/Graphics/SVG/1.1/DTD/svg11.dtd">
<!-- Generated by graphviz version 2.43.0 (0)
 -->
<!-- Title: Models::MatchRoom Pages: 1 -->
<svg width="230pt" height="93pt"
 viewBox="0.00 0.00 230.00 93.00" xmlns="http://www.w3.org/2000/svg" xmlns:xlink="http://www.w3.org/1999/xlink">
<g id="graph0" class="graph" transform="scale(1 1) rotate(0) translate(4 89)">
<title>Models::MatchRoom</title>
<!-- Node1 -->
<g id="Node000001" class="node">
<title>Node1</title>
<g id="a_Node000001"><a xlink:title="Represents a scheduled match between two teams in the Elimination Stage.">
<polygon fill="#999999" stroke="#666666" points="162.5,-19 46.5,-19 46.5,0 162.5,0 162.5,-19"/>
<text text-anchor="middle" x="104.5" y="-7" font-family="Helvetica,sans-Serif" font-size="10.00">Models::MatchRoom</text>
</a>
</g>
</g>
<!-- Node2 -->
<g id="Node000002" class="node">
<title>Node2</title>
<g id="a_Node000002"><a xlink:href="classModels_1_1Round.html" target="_top" xlink:title="Represents a stage of the tournament (e.g., &quot;Round of 16&quot;, &quot;Qualifiers&quot;).">
<polygon fill="white" stroke="#666666" points="89,-85 0,-85 0,-66 89,-66 89,-85"/>
<text text-anchor="middle" x="44.5" y="-73" font-family="Helvetica,sans-Serif" font-size="10.00">Models::Round</text>
</a>
</g>
</g>
<!-- Node2&#45;&gt;Node1 -->
<g id="edge1_Node000001_Node000002" class="edge">
<title>Node2&#45;&gt;Node1</title>
<g id="a_edge1_Node000001_Node000002"><a xlink:title=" ">
<path fill="none" stroke="#9a32cd" stroke-dasharray="5,2" d="M59.52,-58.48C71.1,-46.12 86.7,-29.49 96.15,-19.41"/>
<polygon fill="#9a32cd" stroke="#9a32cd" points="56.88,-56.18 52.59,-65.87 61.98,-60.97 56.88,-56.18"/>
</a>
</g>
<text text-anchor="middle" x="95.5" y="-40" font-family="Helvetica,sans-Serif" font-size="10.00" fill="grey"> Round</text>
</g>
<!-- Node3 -->
<g id="Node000003" class="node">
<title>Node3</title>
<g id="a_Node000003"><a xlink:href="classModels_1_1RefereeInfo.html" target="_top" xlink:title="Contains authentication and identity info for tournament referees.">
<polygon fill="white" stroke="#666666" points="222,-85 107,-85 107,-66 222,-66 222,-85"/>
<text text-anchor="middle" x="164.5" y="-73" font-family="Helvetica,sans-Serif" font-size="10.00">Models::RefereeInfo</text>
</a>
</g>
</g>
<!-- Node3&#45;&gt;Node1 -->
<g id="edge2_Node000001_Node000003" class="edge">
<title>Node3&#45;&gt;Node1</title>
<g id="a_edge2_Node000001_Node000003"><a xlink:title=" ">
<path fill="none" stroke="#9a32cd" stroke-dasharray="5,2" d="M149.48,-58.48C137.9,-46.12 122.3,-29.49 112.85,-19.41"/>
<polygon fill="#9a32cd" stroke="#9a32cd" points="147.02,-60.97 156.41,-65.87 152.12,-56.18 147.02,-60.97"/>
</a>
</g>
<text text-anchor="middle" x="158.5" y="-40" font-family="Helvetica,sans-Serif" font-size="10.00" fill="grey"> Referee</text>
</g>
</g>
</svg>
