<?xml version="1.0" encoding="UTF-8" standalone="no"?>
<!DOCTYPE svg PUBLIC "-//W3C//DTD SVG 1.1//EN"
 "http://www.w3.org/Graphics/SVG/1.1/DTD/svg11.dtd">
<!-- Generated by graphviz version 2.43.0 (0)
 -->
<!-- Title: AutoRefQualifiersStage Pages: 1 -->
<svg width="263pt" height="159pt"
 viewBox="0.00 0.00 262.50 159.00" xmlns="http://www.w3.org/2000/svg" xmlns:xlink="http://www.w3.org/1999/xlink">
<g id="graph0" class="graph" transform="scale(1 1) rotate(0) translate(4 155)">
<title>AutoRefQualifiersStage</title>
<!-- Node1 -->
<g id="Node000001" class="node">
<title>Node1</title>
<g id="a_Node000001"><a xlink:title="Handles the automated refereeing logic for Qualifier Lobbies. manages a linear flow of maps with no p...">
<polygon fill="#999999" stroke="#666666" points="130,-19 0,-19 0,0 130,0 130,-19"/>
<text text-anchor="middle" x="65" y="-7" font-family="Helvetica,sans-Serif" font-size="10.00">AutoRefQualifiersStage</text>
</a>
</g>
</g>
<!-- Node2 -->
<g id="Node000002" class="node">
<title>Node2</title>
<g id="a_Node000002"><a xlink:title=" ">
<polygon fill="white" stroke="#666666" points="78.5,-85 19.5,-85 19.5,-66 78.5,-66 78.5,-85"/>
<text text-anchor="middle" x="49" y="-73" font-family="Helvetica,sans-Serif" font-size="10.00">IAutoRef</text>
</a>
</g>
</g>
<!-- Node2&#45;&gt;Node1 -->
<g id="edge1_Node000001_Node000002" class="edge">
<title>Node2&#45;&gt;Node1</title>
<g id="a_edge1_Node000001_Node000002"><a xlink:title=" ">
<path fill="none" stroke="#8b1a1a" d="M53.64,-55.95C56.64,-43.93 60.42,-28.82 62.77,-19.41"/>
<polygon fill="#8b1a1a" stroke="#8b1a1a" points="50.19,-55.32 51.16,-65.87 56.98,-57.02 50.19,-55.32"/>
</a>
</g>
</g>
<!-- Node3 -->
<g id="Node000003" class="node">
<title>Node3</title>
<g id="a_Node000003"><a xlink:href="classModels.html" target="_top" xlink:title="Container for all Entity Framework Core data models.">
<polygon fill="white" stroke="#666666" points="149,-85 97,-85 97,-66 149,-66 149,-85"/>
<text text-anchor="middle" x="123" y="-73" font-family="Helvetica,sans-Serif" font-size="10.00">Models</text>
</a>
</g>
</g>
<!-- Node3&#45;&gt;Node1 -->
<g id="edge2_Node000001_Node000003" class="edge">
<title>Node3&#45;&gt;Node1</title>
<g id="a_edge2_Node000001_Node000003"><a xlink:title=" ">
<path fill="none" stroke="#9a32cd" stroke-dasharray="5,2" d="M108.16,-58.12C97,-45.81 82.12,-29.39 73.07,-19.41"/>
<polygon fill="#9a32cd" stroke="#9a32cd" points="105.87,-60.81 115.18,-65.87 111.06,-56.11 105.87,-60.81"/>
</a>
</g>
<text text-anchor="middle" x="132" y="-40" font-family="Helvetica,sans-Serif" font-size="10.00" fill="grey"> currentMatch</text>
</g>
<!-- Node4 -->
<g id="Node000004" class="node">
<title>Node4</title>
<g id="a_Node000004"><a xlink:href="classModels_1_1Round.html" target="_top" xlink:title="Represents a stage of the tournament (e.g., &quot;Round of 16&quot;, &quot;Qualifiers&quot;).">
<polygon fill="white" stroke="#666666" points="103.5,-151 14.5,-151 14.5,-132 103.5,-132 103.5,-151"/>
<text text-anchor="middle" x="59" y="-139" font-family="Helvetica,sans-Serif" font-size="10.00">Models::Round</text>
</a>
</g>
</g>
<!-- Node4&#45;&gt;Node3 -->
<g id="edge3_Node000003_Node000004" class="edge">
<title>Node4&#45;&gt;Node3</title>
<g id="a_edge3_Node000003_Node000004"><a xlink:title=" ">
<path fill="none" stroke="#9a32cd" stroke-dasharray="5,2" d="M75.02,-124.48C87.38,-112.12 104.01,-95.49 114.09,-85.41"/>
<polygon fill="#9a32cd" stroke="#9a32cd" points="72.23,-122.32 67.63,-131.87 77.18,-127.27 72.23,-122.32"/>
</a>
</g>
<text text-anchor="middle" x="112" y="-106" font-family="Helvetica,sans-Serif" font-size="10.00" fill="grey"> Round</text>
</g>
<!-- Node5 -->
<g id="Node000005" class="node">
<title>Node5</title>
<g id="a_Node000005"><a xlink:href="classModels_1_1RoundBeatmap.html" target="_top" xlink:title=" ">
<polygon fill="white" stroke="#666666" points="254.5,-151 121.5,-151 121.5,-132 254.5,-132 254.5,-151"/>
<text text-anchor="middle" x="188" y="-139" font-family="Helvetica,sans-Serif" font-size="10.00">Models::RoundBeatmap</text>
</a>
</g>
</g>
<!-- Node5&#45;&gt;Node3 -->
<g id="edge4_Node000003_Node000005" class="edge">
<title>Node5&#45;&gt;Node3</title>
<g id="a_edge4_Node000003_Node000005"><a xlink:title=" ">
<path fill="none" stroke="#9a32cd" stroke-dasharray="5,2" d="M172.08,-124.83C159.5,-112.44 142.38,-95.59 132.04,-85.41"/>
<polygon fill="#9a32cd" stroke="#9a32cd" points="169.65,-127.35 179.23,-131.87 174.56,-122.36 169.65,-127.35"/>
</a>
</g>
<text text-anchor="middle" x="168.5" y="-106" font-family="Helvetica,sans-Serif" font-size="10.00" fill="grey"> get</text>
</g>
</g>
</svg>
