<?xml version="1.0" encoding="UTF-8" standalone="no"?>
<!DOCTYPE svg PUBLIC "-//W3C//DTD SVG 1.1//EN"
 "http://www.w3.org/Graphics/SVG/1.1/DTD/svg11.dtd">
<!-- Generated by graphviz version 2.43.0 (0)
 -->
<!-- Title: Models Pages: 1 -->
<svg width="248pt" height="93pt"
 viewBox="0.00 0.00 248.00 93.00" xmlns="http://www.w3.org/2000/svg" xmlns:xlink="http://www.w3.org/1999/xlink">
<g id="graph0" class="graph" transform="scale(1 1) rotate(0) translate(4 89)">
<title>Models</title>
<!-- Node1 -->
<g id="Node000001" class="node">
<title>Node1</title>
<g id="a_Node000001"><a xlink:title="Container for all Entity Framework Core data models.">
<polygon fill="#999999" stroke="#666666" points="134.5,-19 82.5,-19 82.5,0 134.5,0 134.5,-19"/>
<text text-anchor="middle" x="108.5" y="-7" font-family="Helvetica,sans-Serif" font-size="10.00">Models</text>
</a>
</g>
</g>
<!-- Node2 -->
<g id="Node000002" class="node">
<title>Node2</title>
<g id="a_Node000002"><a xlink:href="classModels_1_1Round.html" target="_top" xlink:title="Represents a stage of the tournament (e.g., &quot;Round of 16&quot;, &quot;Qualifiers&quot;).">
<polygon fill="white" stroke="#666666" points="89,-85 0,-85 0,-66 89,-66 89,-85"/>
<text text-anchor="middle" x="44.5" y="-73" font-family="Helvetica,sans-Serif" font-size="10.00">Models::Round</text>
</a>
</g>
</g>
<!-- Node2&#45;&gt;Node1 -->
<g id="edge1_Node000001_Node000002" class="edge">
<title>Node2&#45;&gt;Node1</title>
<g id="a_edge1_Node000001_Node000002"><a xlink:title=" ">
<path fill="none" stroke="#9a32cd" stroke-dasharray="5,2" d="M60.52,-58.48C72.88,-46.12 89.51,-29.49 99.59,-19.41"/>
<polygon fill="#9a32cd" stroke="#9a32cd" points="57.73,-56.32 53.13,-65.87 62.68,-61.27 57.73,-56.32"/>
</a>
</g>
<text text-anchor="middle" x="97.5" y="-40" font-family="Helvetica,sans-Serif" font-size="10.00" fill="grey"> Round</text>
</g>
<!-- Node3 -->
<g id="Node000003" class="node">
<title>Node3</title>
<g id="a_Node000003"><a xlink:href="classModels_1_1RoundBeatmap.html" target="_top" xlink:title=" ">
<polygon fill="white" stroke="#666666" points="240,-85 107,-85 107,-66 240,-66 240,-85"/>
<text text-anchor="middle" x="173.5" y="-73" font-family="Helvetica,sans-Serif" font-size="10.00">Models::RoundBeatmap</text>
</a>
</g>
</g>
<!-- Node3&#45;&gt;Node1 -->
<g id="edge2_Node000001_Node000003" class="edge">
<title>Node3&#45;&gt;Node1</title>
<g id="a_edge2_Node000001_Node000003"><a xlink:title=" ">
<path fill="none" stroke="#9a32cd" stroke-dasharray="5,2" d="M157.58,-58.83C145,-46.44 127.88,-29.59 117.54,-19.41"/>
<polygon fill="#9a32cd" stroke="#9a32cd" points="155.15,-61.35 164.73,-65.87 160.06,-56.36 155.15,-61.35"/>
</a>
</g>
<text text-anchor="middle" x="154" y="-40" font-family="Helvetica,sans-Serif" font-size="10.00" fill="grey"> get</text>
</g>
</g>
</svg>
