<?xml version="1.0" encoding="UTF-8" standalone="no"?>
<!DOCTYPE svg PUBLIC "-//W3C//DTD SVG 1.1//EN"
 "http://www.w3.org/Graphics/SVG/1.1/DTD/svg11.dtd">
<!-- Generated by graphviz version 2.43.0 (0)
 -->
<!-- Title: ScoreImporter Pages: 1 -->
<svg width="98pt" height="149pt"
 viewBox="0.00 0.00 98.00 149.00" xmlns="http://www.w3.org/2000/svg" xmlns:xlink="http://www.w3.org/1999/xlink">
<g id="graph0" class="graph" transform="scale(1 1) rotate(0) translate(4 145)">
<title>ScoreImporter</title>
<!-- Node1 -->
<g id="Node000001" class="node">
<title>Node1</title>
<g id="a_Node000001"><a xlink:title="Helper class for parsing match results from external files (CSV/TXT) and saving them to the database.">
<polygon fill="#999999" stroke="#666666" points="88,-19 2,-19 2,0 88,0 88,-19"/>
<text text-anchor="middle" x="45" y="-7" font-family="Helvetica,sans-Serif" font-size="10.00">ScoreImporter</text>
</a>
</g>
</g>
<!-- Node2 -->
<g id="Node000002" class="node">
<title>Node2</title>
<g id="a_Node000002"><a xlink:href="classModelsContext.html" target="_top" xlink:title=" ">
<polygon fill="white" stroke="#666666" points="90,-85 0,-85 0,-66 90,-66 90,-85"/>
<text text-anchor="middle" x="45" y="-73" font-family="Helvetica,sans-Serif" font-size="10.00">ModelsContext</text>
</a>
</g>
</g>
<!-- Node2&#45;&gt;Node1 -->
<g id="edge1_Node000001_Node000002" class="edge">
<title>Node2&#45;&gt;Node1</title>
<g id="a_edge1_Node000001_Node000002"><a xlink:title=" ">
<path fill="none" stroke="#9a32cd" stroke-dasharray="5,2" d="M45,-55.58C45,-43.63 45,-28.72 45,-19.41"/>
<polygon fill="#9a32cd" stroke="#9a32cd" points="41.5,-55.87 45,-65.87 48.5,-55.87 41.5,-55.87"/>
</a>
</g>
<text text-anchor="middle" x="53" y="-40" font-family="Helvetica,sans-Serif" font-size="10.00" fill="grey"> db</text>
</g>
<!-- Node3 -->
<g id="Node000003" class="node">
<title>Node3</title>
<g id="a_Node000003"><a xlink:title=" ">
<polygon fill="white" stroke="#666666" points="79,-141 11,-141 11,-122 79,-122 79,-141"/>
<text text-anchor="middle" x="45" y="-129" font-family="Helvetica,sans-Serif" font-size="10.00">DbContext</text>
</a>
</g>
</g>
<!-- Node3&#45;&gt;Node2 -->
<g id="edge2_Node000002_Node000003" class="edge">
<title>Node3&#45;&gt;Node2</title>
<g id="a_edge2_Node000002_Node000003"><a xlink:title=" ">
<path fill="none" stroke="#8b1a1a" d="M45,-111.3C45,-102.41 45,-92.28 45,-85.25"/>
<polygon fill="#8b1a1a" stroke="#8b1a1a" points="41.5,-111.58 45,-121.58 48.5,-111.58 41.5,-111.58"/>
</a>
</g>
</g>
</g>
</svg>
