<?xml version="1.0" encoding="UTF-8" standalone="no"?>
<!DOCTYPE svg PUBLIC "-//W3C//DTD SVG 1.1//EN"
 "http://www.w3.org/Graphics/SVG/1.1/DTD/svg11.dtd">
<!-- Generated by graphviz version 2.43.0 (0)
 -->
<!-- Title: ss::Internal::Management::Server::Resources::Strings_es Pages: 1 -->
<svg width="203pt" height="104pt"
 viewBox="0.00 0.00 202.50 104.00" xmlns="http://www.w3.org/2000/svg" xmlns:xlink="http://www.w3.org/1999/xlink">
<g id="graph0" class="graph" transform="scale(1 1) rotate(0) translate(4 100)">
<title>ss::Internal::Management::Server::Resources::Strings_es</title>
<!-- Node1 -->
<g id="Node000001" class="node">
<title>Node1</title>
<g id="a_Node000001"><a xlink:title="A strongly&#45;typed resource class, for looking up localized strings, etc.">
<polygon fill="#999999" stroke="#666666" points="167,-30 0,-30 0,0 167,0 167,-30"/>
<text text-anchor="start" x="8" y="-18" font-family="Helvetica,sans-Serif" font-size="10.00">ss::Internal::Management</text>
<text text-anchor="middle" x="83.5" y="-7" font-family="Helvetica,sans-Serif" font-size="10.00">::Server::Resources::Strings_es</text>
</a>
</g>
</g>
<!-- Node2 -->
<g id="Node000002" class="node">
<title>Node2</title>
<g id="a_Node000002"><a xlink:title=" ">
<polygon fill="white" stroke="#666666" points="71,-96 4,-96 4,-77 71,-77 71,-96"/>
<text text-anchor="middle" x="37.5" y="-84" font-family="Helvetica,sans-Serif" font-size="10.00">Resources</text>
</a>
</g>
</g>
<!-- Node2&#45;&gt;Node1 -->
<g id="edge1_Node000001_Node000002" class="edge">
<title>Node2&#45;&gt;Node1</title>
<g id="a_edge1_Node000001_Node000002"><a xlink:title=" ">
<path fill="none" stroke="#9a32cd" stroke-dasharray="5,2" d="M35.98,-66.58C36.25,-60.34 37.42,-53.57 40.5,-48 44.37,-41 50.5,-35.09 56.92,-30.33"/>
<polygon fill="#9a32cd" stroke="#9a32cd" points="32.49,-66.98 36.26,-76.89 39.49,-66.79 32.49,-66.98"/>
</a>
</g>
<text text-anchor="middle" x="74" y="-51" font-family="Helvetica,sans-Serif" font-size="10.00" fill="grey"> resourceMan</text>
</g>
<!-- Node3 -->
<g id="Node000003" class="node">
<title>Node3</title>
<g id="a_Node000003"><a xlink:title=" ">
<polygon fill="white" stroke="#666666" points="170,-96 89,-96 89,-77 170,-77 170,-96"/>
<text text-anchor="middle" x="129.5" y="-84" font-family="Helvetica,sans-Serif" font-size="10.00">Globalization</text>
</a>
</g>
</g>
<!-- Node3&#45;&gt;Node1 -->
<g id="edge2_Node000001_Node000003" class="edge">
<title>Node3&#45;&gt;Node1</title>
<g id="a_edge2_Node000001_Node000003"><a xlink:title=" ">
<path fill="none" stroke="#9a32cd" stroke-dasharray="5,2" d="M119.72,-67.9C116.04,-61.53 111.73,-54.35 107.5,-48 103.5,-41.99 98.79,-35.58 94.6,-30.09"/>
<polygon fill="#9a32cd" stroke="#9a32cd" points="116.9,-70.02 124.87,-76.99 122.99,-66.57 116.9,-70.02"/>
</a>
</g>
<text text-anchor="middle" x="154" y="-51" font-family="Helvetica,sans-Serif" font-size="10.00" fill="grey"> resourceCulture</text>
</g>
</g>
</svg>
