<?xml version="1.0" encoding="UTF-8" standalone="no"?>
<!DOCTYPE svg PUBLIC "-//W3C//DTD SVG 1.1//EN"
 "http://www.w3.org/Graphics/SVG/1.1/DTD/svg11.dtd">
<!-- Generated by graphviz version 2.43.0 (0)
 -->
<!-- Title: DatabaseSchema Pages: 1 -->
<svg width="863pt" height="465pt"
 viewBox="0.00 0.00 863.00 464.50" xmlns="http://www.w3.org/2000/svg" xmlns:xlink="http://www.w3.org/1999/xlink">
<g id="graph0" class="graph" transform="scale(1 1) rotate(0) translate(4 460.5)">
<title>DatabaseSchema</title>
<polygon fill="white" stroke="transparent" points="-4,4 -4,-460.5 859,-460.5 859,4 -4,4"/>
<!-- MatchRoom -->
<g id="node1" class="node">
<title>MatchRoom</title>
<path fill="#d5f5e3" stroke="black" d="M26.67,-212C26.67,-212 178.33,-212 178.33,-212 183.17,-212 188,-216.83 188,-221.67 188,-221.67 188,-231.33 188,-231.33 188,-236.17 183.17,-241 178.33,-241 178.33,-241 26.67,-241 26.67,-241 21.83,-241 17,-236.17 17,-231.33 17,-231.33 17,-221.67 17,-221.67 17,-216.83 21.83,-212 26.67,-212"/>
<text text-anchor="middle" x="54.5" y="-224" font-family="Helvetica,sans-Serif" font-size="10.00">MatchRoom</text>
<polyline fill="none" stroke="black" points="92,-212 92,-241 "/>
<text text-anchor="start" x="100" y="-224" font-family="Helvetica,sans-Serif" font-size="10.00">+ Id </text>
<polyline fill="none" stroke="black" points="132,-212 132,-241 "/>
<text text-anchor="start" x="140" y="-224" font-family="Helvetica,sans-Serif" font-size="10.00">+ State </text>
</g>
<!-- lbl_Red -->
<g id="node9" class="node">
<title>lbl_Red</title>
<text text-anchor="middle" x="299.5" y="-271.6" font-family="Helvetica,sans-Serif" font-size="8.00" fill="#e74c3c">Red Team</text>
</g>
<!-- MatchRoom&#45;&gt;lbl_Red -->
<g id="edge1" class="edge">
<title>MatchRoom&#45;&gt;lbl_Red</title>
<path fill="none" stroke="#e74c3c" d="M188.26,-235.25C241.56,-235.25 300,-235.25 300,-235.25 300,-235.25 300,-253.33 300,-264.63"/>
</g>
<!-- lbl_Blue -->
<g id="node10" class="node">
<title>lbl_Blue</title>
<text text-anchor="middle" x="299.5" y="-324.6" font-family="Helvetica,sans-Serif" font-size="8.00" fill="#3498db">Blue Team</text>
</g>
<!-- MatchRoom&#45;&gt;lbl_Blue -->
<g id="edge2" class="edge">
<title>MatchRoom&#45;&gt;lbl_Blue</title>
<path fill="none" stroke="#3498db" d="M103,-241.26C103,-269.07 103,-326.5 103,-326.5 103,-326.5 214.69,-326.5 269.66,-326.5"/>
</g>
<!-- lbl_Rules1 -->
<g id="node11" class="node">
<title>lbl_Rules1</title>
<text text-anchor="middle" x="299.5" y="-165.6" font-family="Helvetica,sans-Serif" font-size="8.00" fill="#5d6d7e">Rules</text>
</g>
<!-- MatchRoom&#45;&gt;lbl_Rules1 -->
<g id="edge5" class="edge">
<title>MatchRoom&#45;&gt;lbl_Rules1</title>
<path fill="none" stroke="#5d6d7e" d="M103,-211.92C103,-194.44 103,-167.5 103,-167.5 103,-167.5 230.24,-167.5 279.94,-167.5"/>
</g>
<!-- lbl_Ref1 -->
<g id="node13" class="node">
<title>lbl_Ref1</title>
<text text-anchor="middle" x="299.5" y="-59.6" font-family="Helvetica,sans-Serif" font-size="8.00" fill="#5d6d7e">Managed By</text>
</g>
<!-- MatchRoom&#45;&gt;lbl_Ref1 -->
<g id="edge7" class="edge">
<title>MatchRoom&#45;&gt;lbl_Ref1</title>
<path fill="none" stroke="#5d6d7e" d="M188.01,-223.33C213.12,-223.33 234,-223.33 234,-223.33 234,-223.33 234,-61.5 234,-61.5 234,-61.5 249.87,-61.5 265.98,-61.5"/>
</g>
<!-- QualRoom -->
<g id="node2" class="node">
<title>QualRoom</title>
<path fill="#d5f5e3" stroke="black" d="M9.67,-100C9.67,-100 195.33,-100 195.33,-100 200.17,-100 205,-104.83 205,-109.67 205,-109.67 205,-119.33 205,-119.33 205,-124.17 200.17,-129 195.33,-129 195.33,-129 9.67,-129 9.67,-129 4.83,-129 0,-124.17 0,-119.33 0,-119.33 0,-109.67 0,-109.67 0,-104.83 4.83,-100 9.67,-100"/>
<text text-anchor="middle" x="43" y="-112" font-family="Helvetica,sans-Serif" font-size="10.00">QualifierRoom</text>
<polyline fill="none" stroke="black" points="86,-100 86,-129 "/>
<text text-anchor="start" x="94" y="-112" font-family="Helvetica,sans-Serif" font-size="10.00">+ Id </text>
<polyline fill="none" stroke="black" points="126,-100 126,-129 "/>
<text text-anchor="start" x="134" y="-112" font-family="Helvetica,sans-Serif" font-size="10.00">+ StartTime </text>
</g>
<!-- lbl_Rules2 -->
<g id="node12" class="node">
<title>lbl_Rules2</title>
<text text-anchor="middle" x="299.5" y="-112.6" font-family="Helvetica,sans-Serif" font-size="8.00" fill="#5d6d7e">Rules</text>
</g>
<!-- QualRoom&#45;&gt;lbl_Rules2 -->
<g id="edge9" class="edge">
<title>QualRoom&#45;&gt;lbl_Rules2</title>
<path fill="none" stroke="#5d6d7e" d="M205.04,-114.5C233.65,-114.5 261.8,-114.5 279.82,-114.5"/>
</g>
<!-- lbl_Ref2 -->
<g id="node14" class="node">
<title>lbl_Ref2</title>
<text text-anchor="middle" x="299.5" y="-6.6" font-family="Helvetica,sans-Serif" font-size="8.00" fill="#5d6d7e">Managed By</text>
</g>
<!-- QualRoom&#45;&gt;lbl_Ref2 -->
<g id="edge10" class="edge">
<title>QualRoom&#45;&gt;lbl_Ref2</title>
<path fill="none" stroke="#5d6d7e" d="M103,-99.76C103,-70.64 103,-8.5 103,-8.5 103,-8.5 209.54,-8.5 265.72,-8.5"/>
</g>
<!-- lbl_Req -->
<g id="node15" class="node">
<title>lbl_Req</title>
<text text-anchor="middle" x="299.5" y="-218.6" font-family="Helvetica,sans-Serif" font-size="8.00" fill="#5d6d7e">Requested By</text>
</g>
<!-- QualRoom&#45;&gt;lbl_Req -->
<g id="edge11" class="edge">
<title>QualRoom&#45;&gt;lbl_Req</title>
<path fill="none" stroke="#5d6d7e" d="M199,-129.28C199,-157.81 199,-217.67 199,-217.67 199,-217.67 234.2,-217.67 262.93,-217.67"/>
</g>
<!-- Round -->
<g id="node3" class="node">
<title>Round</title>
<path fill="#fadbd8" stroke="black" d="M408.67,-127C408.67,-127 540.33,-127 540.33,-127 545.17,-127 550,-131.83 550,-136.67 550,-136.67 550,-146.33 550,-146.33 550,-151.17 545.17,-156 540.33,-156 540.33,-156 408.67,-156 408.67,-156 403.83,-156 399,-151.17 399,-146.33 399,-146.33 399,-136.67 399,-136.67 399,-131.83 403.83,-127 408.67,-127"/>
<text text-anchor="middle" x="422.5" y="-139" font-family="Helvetica,sans-Serif" font-size="10.00">Round</text>
<polyline fill="none" stroke="black" points="446,-127 446,-156 "/>
<text text-anchor="start" x="454" y="-139" font-family="Helvetica,sans-Serif" font-size="10.00">+ Id </text>
<polyline fill="none" stroke="black" points="486,-127 486,-156 "/>
<text text-anchor="start" x="494" y="-139" font-family="Helvetica,sans-Serif" font-size="10.00">+ BestOf </text>
</g>
<!-- User -->
<g id="node4" class="node">
<title>User</title>
<path fill="#d6eaf8" stroke="black" d="M405.67,-312C405.67,-312 543.33,-312 543.33,-312 548.17,-312 553,-316.83 553,-321.67 553,-321.67 553,-331.33 553,-331.33 553,-336.17 548.17,-341 543.33,-341 543.33,-341 405.67,-341 405.67,-341 400.83,-341 396,-336.17 396,-331.33 396,-331.33 396,-321.67 396,-321.67 396,-316.83 400.83,-312 405.67,-312"/>
<text text-anchor="middle" x="415.5" y="-324" font-family="Helvetica,sans-Serif" font-size="10.00">User</text>
<polyline fill="none" stroke="black" points="435,-312 435,-341 "/>
<text text-anchor="start" x="443" y="-324" font-family="Helvetica,sans-Serif" font-size="10.00">+ Id </text>
<polyline fill="none" stroke="black" points="475,-312 475,-341 "/>
<text text-anchor="start" x="483" y="-324" font-family="Helvetica,sans-Serif" font-size="10.00">+ DiscordID </text>
</g>
<!-- lbl_1to1 -->
<g id="node18" class="node">
<title>lbl_1to1</title>
<text text-anchor="middle" x="628" y="-324.6" font-family="Helvetica,sans-Serif" font-size="8.00" fill="#5d6d7e">1:1</text>
</g>
<!-- User&#45;&gt;lbl_1to1 -->
<g id="edge15" class="edge">
<title>User&#45;&gt;lbl_1to1</title>
<path fill="none" stroke="#5d6d7e" d="M553.05,-326.5C575.91,-326.5 598.57,-326.5 612.88,-326.5"/>
</g>
<!-- OsuUser -->
<g id="node5" class="node">
<title>OsuUser</title>
<path fill="#d6eaf8" stroke="black" d="M710.67,-312C710.67,-312 845.33,-312 845.33,-312 850.17,-312 855,-316.83 855,-321.67 855,-321.67 855,-331.33 855,-331.33 855,-336.17 850.17,-341 845.33,-341 845.33,-341 710.67,-341 710.67,-341 705.83,-341 701,-336.17 701,-331.33 701,-331.33 701,-321.67 701,-321.67 701,-316.83 705.83,-312 710.67,-312"/>
<text text-anchor="middle" x="730" y="-324" font-family="Helvetica,sans-Serif" font-size="10.00">OsuUser</text>
<polyline fill="none" stroke="black" points="759,-312 759,-341 "/>
<text text-anchor="start" x="767" y="-324" font-family="Helvetica,sans-Serif" font-size="10.00">+ Id </text>
<polyline fill="none" stroke="black" points="799,-312 799,-341 "/>
<text text-anchor="start" x="807" y="-324" font-family="Helvetica,sans-Serif" font-size="10.00">+ Rank </text>
</g>
<!-- Player -->
<g id="node6" class="node">
<title>Player</title>
<path fill="#eafaf1" stroke="black" d="M25.67,-427C25.67,-427 179.33,-427 179.33,-427 184.17,-427 189,-431.83 189,-436.67 189,-436.67 189,-446.33 189,-446.33 189,-451.17 184.17,-456 179.33,-456 179.33,-456 25.67,-456 25.67,-456 20.83,-456 16,-451.17 16,-446.33 16,-446.33 16,-436.67 16,-436.67 16,-431.83 20.83,-427 25.67,-427"/>
<text text-anchor="middle" x="39.5" y="-439" font-family="Helvetica,sans-Serif" font-size="10.00">Player</text>
<polyline fill="none" stroke="black" points="63,-427 63,-456 "/>
<text text-anchor="start" x="71" y="-439" font-family="Helvetica,sans-Serif" font-size="10.00">+ Id </text>
<polyline fill="none" stroke="black" points="103,-427 103,-456 "/>
<text text-anchor="start" x="111" y="-439" font-family="Helvetica,sans-Serif" font-size="10.00">+ Availability </text>
</g>
<!-- lbl_IsA -->
<g id="node17" class="node">
<title>lbl_IsA</title>
<text text-anchor="middle" x="299.5" y="-433.6" font-family="Helvetica,sans-Serif" font-size="8.00" fill="#5d6d7e">Is A</text>
</g>
<!-- Player&#45;&gt;lbl_IsA -->
<g id="edge16" class="edge">
<title>Player&#45;&gt;lbl_IsA</title>
<path fill="none" stroke="#5d6d7e" d="M189.19,-435.5C225.12,-435.5 263.17,-435.5 283.86,-435.5"/>
</g>
<!-- Referee -->
<g id="node7" class="node">
<title>Referee</title>
<path fill="#fcf3cf" stroke="black" d="M403.67,-21C403.67,-21 545.33,-21 545.33,-21 550.17,-21 555,-25.83 555,-30.67 555,-30.67 555,-40.33 555,-40.33 555,-45.17 550.17,-50 545.33,-50 545.33,-50 403.67,-50 403.67,-50 398.83,-50 394,-45.17 394,-40.33 394,-40.33 394,-30.67 394,-30.67 394,-25.83 398.83,-21 403.67,-21"/>
<text text-anchor="middle" x="431" y="-33" font-family="Helvetica,sans-Serif" font-size="10.00">RefereeInfo</text>
<polyline fill="none" stroke="black" points="468,-21 468,-50 "/>
<text text-anchor="start" x="476" y="-33" font-family="Helvetica,sans-Serif" font-size="10.00">+ Id </text>
<polyline fill="none" stroke="black" points="508,-21 508,-50 "/>
<text text-anchor="start" x="516" y="-33" font-family="Helvetica,sans-Serif" font-size="10.00">+ IRC </text>
</g>
<!-- Score -->
<g id="node8" class="node">
<title>Score</title>
<path fill="#fcf3cf" stroke="black" d="M23.17,-361C23.17,-361 181.83,-361 181.83,-361 186.67,-361 191.5,-365.83 191.5,-370.67 191.5,-370.67 191.5,-380.33 191.5,-380.33 191.5,-385.17 186.67,-390 181.83,-390 181.83,-390 23.17,-390 23.17,-390 18.33,-390 13.5,-385.17 13.5,-380.33 13.5,-380.33 13.5,-370.67 13.5,-370.67 13.5,-365.83 18.33,-361 23.17,-361"/>
<text text-anchor="middle" x="53.5" y="-373" font-family="Helvetica,sans-Serif" font-size="10.00">ScoreResults</text>
<polyline fill="none" stroke="black" points="93.5,-361 93.5,-390 "/>
<text text-anchor="start" x="101.5" y="-373" font-family="Helvetica,sans-Serif" font-size="10.00">+ Id </text>
<polyline fill="none" stroke="black" points="133.5,-361 133.5,-390 "/>
<text text-anchor="start" x="141.5" y="-373" font-family="Helvetica,sans-Serif" font-size="10.00">+ Score </text>
</g>
<!-- lbl_Player -->
<g id="node16" class="node">
<title>lbl_Player</title>
<text text-anchor="middle" x="299.5" y="-377.6" font-family="Helvetica,sans-Serif" font-size="8.00" fill="#5d6d7e">Player</text>
</g>
<!-- Score&#45;&gt;lbl_Player -->
<g id="edge19" class="edge">
<title>Score&#45;&gt;lbl_Player</title>
<path fill="none" stroke="#5d6d7e" d="M191.78,-379.5C224.15,-379.5 257.87,-379.5 278.77,-379.5"/>
</g>
<!-- lbl_Red&#45;&gt;User -->
<g id="edge3" class="edge">
<title>lbl_Red&#45;&gt;User</title>
<path fill="none" stroke="#e74c3c" d="M327.7,-273.5C377.31,-273.5 475,-273.5 475,-273.5 475,-273.5 475,-304.74 475,-304.74"/>
<polygon fill="#e74c3c" stroke="#e74c3c" points="472.55,-304.74 475,-311.74 477.45,-304.74 472.55,-304.74"/>
</g>
<!-- lbl_Blue&#45;&gt;User -->
<g id="edge4" class="edge">
<title>lbl_Blue&#45;&gt;User</title>
<path fill="none" stroke="#3498db" d="M329.19,-329.33C329.19,-329.33 388.98,-329.33 388.98,-329.33"/>
<polygon fill="#3498db" stroke="#3498db" points="388.98,-331.78 395.98,-329.33 388.98,-326.88 388.98,-331.78"/>
</g>
<!-- lbl_Rules1&#45;&gt;Round -->
<g id="edge6" class="edge">
<title>lbl_Rules1&#45;&gt;Round</title>
<path fill="none" stroke="#5d6d7e" d="M306,-158.9C306,-153.48 306,-147.5 306,-147.5 306,-147.5 391.63,-147.5 391.63,-147.5"/>
<polygon fill="#5d6d7e" stroke="#5d6d7e" points="391.63,-149.95 398.63,-147.5 391.63,-145.05 391.63,-149.95"/>
</g>
<!-- lbl_Rules2&#45;&gt;Round -->
<g id="edge12" class="edge">
<title>lbl_Rules2&#45;&gt;Round</title>
<path fill="none" stroke="#5d6d7e" d="M293,-123.16C293,-130.04 293,-138.5 293,-138.5 293,-138.5 391.84,-138.5 391.84,-138.5"/>
<polygon fill="#5d6d7e" stroke="#5d6d7e" points="391.84,-140.95 398.84,-138.5 391.84,-136.05 391.84,-140.95"/>
</g>
<!-- lbl_Ref1&#45;&gt;Referee -->
<g id="edge8" class="edge">
<title>lbl_Ref1&#45;&gt;Referee</title>
<path fill="none" stroke="#5d6d7e" d="M311,-52.96C311,-47.14 311,-40.5 311,-40.5 311,-40.5 386.71,-40.5 386.71,-40.5"/>
<polygon fill="#5d6d7e" stroke="#5d6d7e" points="386.71,-42.95 393.71,-40.5 386.71,-38.05 386.71,-42.95"/>
</g>
<!-- lbl_Ref2&#45;&gt;Referee -->
<g id="edge13" class="edge">
<title>lbl_Ref2&#45;&gt;Referee</title>
<path fill="none" stroke="#5d6d7e" d="M289,-17.19C289,-23.34 289,-30.5 289,-30.5 289,-30.5 386.95,-30.5 386.95,-30.5"/>
<polygon fill="#5d6d7e" stroke="#5d6d7e" points="386.95,-32.95 393.95,-30.5 386.95,-28.05 386.95,-32.95"/>
</g>
<!-- lbl_Req&#45;&gt;User -->
<g id="edge14" class="edge">
<title>lbl_Req&#45;&gt;User</title>
<path fill="none" stroke="#5d6d7e" d="M333,-229.3C333,-254.24 333,-323.67 333,-323.67 333,-323.67 388.89,-323.67 388.89,-323.67"/>
<polygon fill="#5d6d7e" stroke="#5d6d7e" points="388.89,-326.12 395.89,-323.67 388.89,-321.22 388.89,-326.12"/>
</g>
<!-- lbl_Player&#45;&gt;User -->
<g id="edge20" class="edge">
<title>lbl_Player&#45;&gt;User</title>
<path fill="none" stroke="#5d6d7e" d="M320.29,-379.5C361.37,-379.5 449,-379.5 449,-379.5 449,-379.5 449,-348.26 449,-348.26"/>
<polygon fill="#5d6d7e" stroke="#5d6d7e" points="451.45,-348.26 449,-341.26 446.55,-348.26 451.45,-348.26"/>
</g>
<!-- lbl_IsA&#45;&gt;User -->
<g id="edge18" class="edge">
<title>lbl_IsA&#45;&gt;User</title>
<path fill="none" stroke="#5d6d7e" d="M315.31,-435.5C362.81,-435.5 501,-435.5 501,-435.5 501,-435.5 501,-348.2 501,-348.2"/>
<polygon fill="#5d6d7e" stroke="#5d6d7e" points="503.45,-348.2 501,-341.2 498.55,-348.2 503.45,-348.2"/>
</g>
<!-- lbl_1to1&#45;&gt;OsuUser -->
<g id="edge17" class="edge">
<title>lbl_1to1&#45;&gt;OsuUser</title>
<path fill="none" stroke="#5d6d7e" d="M643.21,-326.5C643.21,-326.5 693.85,-326.5 693.85,-326.5"/>
<polygon fill="#5d6d7e" stroke="#5d6d7e" points="693.85,-328.95 700.85,-326.5 693.85,-324.05 693.85,-328.95"/>
</g>
</g>
</svg>
