<?xml version="1.0" encoding="UTF-8" standalone="no"?>
<!DOCTYPE svg PUBLIC "-//W3C//DTD SVG 1.1//EN"
 "http://www.w3.org/Graphics/SVG/1.1/DTD/svg11.dtd">
<!-- Generated by graphviz version 2.43.0 (0)
 -->
<!-- Title: QualifiersStateMachine Pages: 1 -->
<svg width="369pt" height="509pt"
 viewBox="0.00 0.00 368.81 508.92" xmlns="http://www.w3.org/2000/svg" xmlns:xlink="http://www.w3.org/1999/xlink">
<g id="graph0" class="graph" transform="scale(1 1) rotate(0) translate(4 504.92)">
<title>QualifiersStateMachine</title>
<polygon fill="white" stroke="transparent" points="-4,4 -4,-504.92 364.81,-504.92 364.81,4 -4,4"/>
<!-- Init -->
<g id="node1" class="node">
<title>Init</title>
<ellipse fill="#e5e7e9" stroke="black" cx="195.81" cy="-471.92" rx="29" ry="29"/>
<text text-anchor="middle" x="195.81" y="-474.92" font-family="Helvetica,sans-Serif" font-size="10.00">Start</text>
<text text-anchor="middle" x="195.81" y="-463.92" font-family="Helvetica,sans-Serif" font-size="10.00">(Lobby Idle)</text>
</g>
<!-- Idle -->
<g id="node2" class="node">
<title>Idle</title>
<path fill="#eeeeee" stroke="black" d="M243.31,-365.92C243.31,-365.92 148.31,-365.92 148.31,-365.92 142.31,-365.92 136.31,-359.92 136.31,-353.92 136.31,-353.92 136.31,-341.92 136.31,-341.92 136.31,-335.92 142.31,-329.92 148.31,-329.92 148.31,-329.92 243.31,-329.92 243.31,-329.92 249.31,-329.92 255.31,-335.92 255.31,-341.92 255.31,-341.92 255.31,-353.92 255.31,-353.92 255.31,-359.92 249.31,-365.92 243.31,-365.92"/>
<text text-anchor="middle" x="195.81" y="-350.92" font-family="Helvetica,sans-Serif" font-size="10.00">Idle</text>
<text text-anchor="middle" x="195.81" y="-339.92" font-family="Helvetica,sans-Serif" font-size="10.00">(Cooldown / Loading)</text>
</g>
<!-- Init&#45;&gt;Idle -->
<g id="edge1" class="edge">
<title>Init&#45;&gt;Idle</title>
<path fill="none" stroke="black" d="M195.81,-442.63C195.81,-422.67 195.81,-396.08 195.81,-376.33"/>
<polygon fill="black" stroke="black" points="199.31,-376.14 195.81,-366.14 192.31,-376.14 199.31,-376.14"/>
<text text-anchor="middle" x="235.31" y="-411.52" font-family="Helvetica,sans-Serif" font-size="8.00">Admin types</text>
<text text-anchor="middle" x="235.31" y="-402.52" font-family="Helvetica,sans-Serif" font-size="8.00">!start</text>
<text text-anchor="middle" x="235.31" y="-393.52" font-family="Helvetica,sans-Serif" font-size="8.00">(auto&#45;ref engaged)</text>
</g>
<!-- WaitStart -->
<g id="node3" class="node">
<title>WaitStart</title>
<path fill="none" stroke="black" d="M99.81,-261.92C99.81,-261.92 31.81,-261.92 31.81,-261.92 25.81,-261.92 19.81,-255.92 19.81,-249.92 19.81,-249.92 19.81,-237.92 19.81,-237.92 19.81,-231.92 25.81,-225.92 31.81,-225.92 31.81,-225.92 99.81,-225.92 99.81,-225.92 105.81,-225.92 111.81,-231.92 111.81,-237.92 111.81,-237.92 111.81,-249.92 111.81,-249.92 111.81,-255.92 105.81,-261.92 99.81,-261.92"/>
<text text-anchor="middle" x="65.81" y="-246.92" font-family="Helvetica,sans-Serif" font-size="10.00">WaitingForStart</text>
<text text-anchor="middle" x="65.81" y="-235.92" font-family="Helvetica,sans-Serif" font-size="10.00">(Timer Active)</text>
</g>
<!-- Idle&#45;&gt;WaitStart -->
<g id="edge2" class="edge">
<title>Idle&#45;&gt;WaitStart</title>
<path fill="none" stroke="black" d="M138.3,-329.87C123.92,-323.67 109.33,-315.5 97.81,-304.92 87.99,-295.9 80.61,-283.17 75.42,-271.75"/>
<polygon fill="black" stroke="black" points="78.51,-270.06 71.43,-262.18 72.05,-272.75 78.51,-270.06"/>
<text text-anchor="middle" x="142.31" y="-298.52" font-family="Helvetica,sans-Serif" font-size="8.00">Next Map Available</text>
<text text-anchor="middle" x="142.31" y="-289.52" font-family="Helvetica,sans-Serif" font-size="8.00">(Loaded Map &amp; Mods)</text>
</g>
<!-- Finished -->
<g id="node5" class="node">
<title>Finished</title>
<path fill="#d5f5e3" stroke="black" d="M231.31,-261.92C231.31,-261.92 160.31,-261.92 160.31,-261.92 154.31,-261.92 148.31,-255.92 148.31,-249.92 148.31,-249.92 148.31,-237.92 148.31,-237.92 148.31,-231.92 154.31,-225.92 160.31,-225.92 160.31,-225.92 231.31,-225.92 231.31,-225.92 237.31,-225.92 243.31,-231.92 243.31,-237.92 243.31,-237.92 243.31,-249.92 243.31,-249.92 243.31,-255.92 237.31,-261.92 231.31,-261.92"/>
<text text-anchor="middle" x="195.81" y="-246.92" font-family="Helvetica,sans-Serif" font-size="10.00">MatchFinished</text>
<text text-anchor="middle" x="195.81" y="-235.92" font-family="Helvetica,sans-Serif" font-size="10.00">(Pool Complete)</text>
</g>
<!-- Idle&#45;&gt;Finished -->
<g id="edge5" class="edge">
<title>Idle&#45;&gt;Finished</title>
<path fill="none" stroke="black" d="M195.81,-329.62C195.81,-313.84 195.81,-290.29 195.81,-272.02"/>
<polygon fill="black" stroke="black" points="199.31,-271.97 195.81,-261.97 192.31,-271.97 199.31,-271.97"/>
<text text-anchor="middle" x="222.81" y="-294.02" font-family="Helvetica,sans-Serif" font-size="8.00">No Maps Left</text>
</g>
<!-- Playing -->
<g id="node4" class="node">
<title>Playing</title>
<path fill="#d4e6f1" stroke="black" d="M262.81,-157.92C262.81,-157.92 184.81,-157.92 184.81,-157.92 178.81,-157.92 172.81,-151.92 172.81,-145.92 172.81,-145.92 172.81,-133.92 172.81,-133.92 172.81,-127.92 178.81,-121.92 184.81,-121.92 184.81,-121.92 262.81,-121.92 262.81,-121.92 268.81,-121.92 274.81,-127.92 274.81,-133.92 274.81,-133.92 274.81,-145.92 274.81,-145.92 274.81,-151.92 268.81,-157.92 262.81,-157.92"/>
<text text-anchor="middle" x="223.81" y="-142.92" font-family="Helvetica,sans-Serif" font-size="10.00">Playing</text>
<text text-anchor="middle" x="223.81" y="-131.92" font-family="Helvetica,sans-Serif" font-size="10.00">(Map in Progress)</text>
</g>
<!-- WaitStart&#45;&gt;Playing -->
<g id="edge3" class="edge">
<title>WaitStart&#45;&gt;Playing</title>
<path fill="none" stroke="black" d="M92.26,-225.85C118.69,-208.79 159.48,-182.45 188.63,-163.63"/>
<polygon fill="black" stroke="black" points="190.78,-166.41 197.28,-158.05 186.98,-160.53 190.78,-166.41"/>
<text text-anchor="middle" x="196.31" y="-194.52" font-family="Helvetica,sans-Serif" font-size="8.00">Players Ready</text>
<text text-anchor="middle" x="196.31" y="-185.52" font-family="Helvetica,sans-Serif" font-size="8.00">OR Countdown ends</text>
</g>
<!-- Panic -->
<g id="node6" class="node">
<title>Panic</title>
<polygon fill="#e74c3c" stroke="black" points="152.36,-17.46 152.36,-36.46 115.13,-49.89 62.49,-49.89 25.26,-36.46 25.26,-17.46 62.49,-4.03 115.13,-4.03 152.36,-17.46"/>
<polygon fill="none" stroke="black" points="156.36,-14.66 156.36,-39.26 115.83,-53.88 61.79,-53.88 21.26,-39.26 21.26,-14.66 61.79,-0.04 115.83,-0.04 156.36,-14.66"/>
<text text-anchor="middle" x="88.81" y="-29.96" font-family="Helvetica,sans-Serif" font-size="10.00" fill="white">MatchOnHold</text>
<text text-anchor="middle" x="88.81" y="-18.96" font-family="Helvetica,sans-Serif" font-size="10.00" fill="white">(PANIC)</text>
</g>
<!-- WaitStart&#45;&gt;Panic -->
<g id="edge6" class="edge">
<title>WaitStart&#45;&gt;Panic</title>
<path fill="none" stroke="#e74c3c" d="M46.66,-225.82C23.39,-202.86 -11.04,-160.47 3.81,-121.92 13.15,-97.67 31.97,-75.8 49.53,-59.27"/>
<polygon fill="#e74c3c" stroke="#e74c3c" points="51.91,-61.84 56.95,-52.52 47.2,-56.66 51.91,-61.84"/>
<text text-anchor="middle" x="23.81" y="-142.52" font-family="Helvetica,sans-Serif" font-size="8.00" fill="#e74c3c">!panic</text>
<text text-anchor="middle" x="23.81" y="-133.52" font-family="Helvetica,sans-Serif" font-size="8.00" fill="#e74c3c">(ANYONE)</text>
</g>
<!-- Playing&#45;&gt;Idle -->
<g id="edge4" class="edge">
<title>Playing&#45;&gt;Idle</title>
<path fill="none" stroke="black" d="M235.02,-158.4C253.57,-189.76 286.04,-256.77 258.81,-304.92 254.63,-312.32 248.53,-318.67 241.76,-324.01"/>
<polygon fill="black" stroke="black" points="239.7,-321.19 233.58,-329.84 243.76,-326.89 239.7,-321.19"/>
<text text-anchor="middle" x="315.31" y="-246.52" font-family="Helvetica,sans-Serif" font-size="8.00">Map Finished</text>
<text text-anchor="middle" x="315.31" y="-237.52" font-family="Helvetica,sans-Serif" font-size="8.00">(Increment Map Index)</text>
</g>
<!-- Playing&#45;&gt;Panic -->
<g id="edge7" class="edge">
<title>Playing&#45;&gt;Panic</title>
<path fill="none" stroke="#e74c3c" d="M203.01,-121.83C182.79,-105.21 151.6,-79.57 126.92,-59.29"/>
<polygon fill="#e74c3c" stroke="#e74c3c" points="129.11,-56.55 119.16,-52.91 124.66,-61.96 129.11,-56.55"/>
<text text-anchor="middle" x="192.81" y="-90.52" font-family="Helvetica,sans-Serif" font-size="8.00" fill="#e74c3c">!panic</text>
<text text-anchor="middle" x="192.81" y="-81.52" font-family="Helvetica,sans-Serif" font-size="8.00" fill="#e74c3c">(ANYONE)</text>
</g>
<!-- Panic&#45;&gt;WaitStart -->
<g id="edge8" class="edge">
<title>Panic&#45;&gt;WaitStart</title>
<path fill="none" stroke="#27ae60" stroke-width="2" d="M86.01,-54.12C81.63,-95.11 73.17,-174.1 68.72,-215.72"/>
<polygon fill="#27ae60" stroke="#27ae60" stroke-width="2" points="65.24,-215.38 67.65,-225.69 72.2,-216.12 65.24,-215.38"/>
<text text-anchor="middle" x="102.81" y="-142.52" font-family="Helvetica,sans-Serif" font-size="8.00" fill="#27ae60">!panic_over</text>
<text text-anchor="middle" x="102.81" y="-133.52" font-family="Helvetica,sans-Serif" font-size="8.00" fill="#27ae60">(REF ONLY)</text>
</g>
</g>
</svg>
