<?xml version="1.0" encoding="UTF-8" standalone="no"?>
<!DOCTYPE svg PUBLIC "-//W3C//DTD SVG 1.1//EN"
 "http://www.w3.org/Graphics/SVG/1.1/DTD/svg11.dtd">
<!-- Generated by graphviz version 2.43.0 (0)
 -->
<!-- Title: MatchStateMachine Pages: 1 -->
<!--zoomable 990 -->

<svg id="main" version="1.1" xmlns="http://www.w3.org/2000/svg" xmlns:xlink="http://www.w3.org/1999/xlink" xml:space="preserve" onload="init(evt)">
<style type="text/css"><![CDATA[
.node, .edge {opacity: 0.7;}
.node.selected, .edge.selected {opacity: 1;}
.edge:hover path { stroke: red; }
.edge:hover polygon { stroke: red; fill: red; }
]]></style>

<defs>
  <circle id="rim" cx="0" cy="0" r="7"/>
  <circle id="rim2" cx="0" cy="0" r="3.5"/>
  <g id="zoomPlus">
    <use xlink:href="#rim" fill="#404040"><set attributeName="fill" to="#808080" begin="zoomplus.mouseover" end="zoomplus.mouseout"/></use>
    <path d="M-4,0h8M0,-4v8" fill="none" stroke="white" stroke-width="1.5" pointer-events="none"/>
  </g>
  <g id="zoomMin">
    <use xlink:href="#rim" fill="#404040"><set attributeName="fill" to="#808080" begin="zoomminus.mouseover" end="zoomminus.mouseout"/></use>
    <path d="M-4,0h8" fill="none" stroke="white" stroke-width="1.5" pointer-events="none"/>
  </g>
  <g id="arrowUp" transform="translate(30 24)">
    <use xlink:href="#rim"/>
    <path pointer-events="none" fill="none" stroke="white" stroke-width="1.5" d="M0,-3.0v7 M-2.5,-0.5L0,-3.0L2.5,-0.5"/>
  </g>
  <g id="arrowRight" transform="rotate(90) translate(36 -43)">
    <use xlink:href="#rim"/>
    <path pointer-events="none" fill="none" stroke="white" stroke-width="1.5" d="M0,-3.0v7 M-2.5,-0.5L0,-3.0L2.5,-0.5"/>
  </g>
  <g id="arrowDown" transform="rotate(180) translate(-30 -48)">
    <use xlink:href="#rim"/>
    <path pointer-events="none" fill="none" stroke="white" stroke-width="1.5" d="M0,-3.0v7 M-2.5,-0.5L0,-3.0L2.5,-0.5"/>
  </g>
  <g id="arrowLeft" transform="rotate(270) translate(-36 17)">
    <use xlink:href="#rim"/>
    <path pointer-events="none" fill="none" stroke="white" stroke-width="1.5" d="M0,-3.0v7 M-2.5,-0.5L0,-3.0L2.5,-0.5"/>
  </g>
  <g id="resetDef">
    <use xlink:href="#rim2" fill="#404040"><set attributeName="fill" to="#808080" begin="reset.mouseover" end="reset.mouseout"/></use>
  </g>
</defs>
<script type="application/ecmascript">
var viewWidth = 1009;
var viewHeight = 990;
</script>
<script type="application/ecmascript" xlink:href="svg.min.js"/>
<svg id="graph" class="graph">
<g id="viewport">
<title>MatchStateMachine</title>
<polygon fill="white" stroke="transparent" points="-4,4 -4,-985.84 1004.77,-985.84 1004.77,4 -4,4"/>
<!-- Idle -->
<g id="node1" class="node">
<title>Idle</title>
<path fill="#eeeeee" stroke="black" d="M750.77,-981.84C750.77,-981.84 720.77,-981.84 720.77,-981.84 714.77,-981.84 708.77,-975.84 708.77,-969.84 708.77,-969.84 708.77,-957.84 708.77,-957.84 708.77,-951.84 714.77,-945.84 720.77,-945.84 720.77,-945.84 750.77,-945.84 750.77,-945.84 756.77,-945.84 762.77,-951.84 762.77,-957.84 762.77,-957.84 762.77,-969.84 762.77,-969.84 762.77,-975.84 756.77,-981.84 750.77,-981.84"/>
<text text-anchor="middle" x="735.77" y="-961.34" font-family="Helvetica,sans-Serif" font-size="10.00">Idle</text>
</g>
<!-- BanPhase -->
<g id="node2" class="node">
<title>BanPhase</title>
<path fill="none" stroke="black" d="M788.27,-886.84C788.27,-886.84 683.27,-886.84 683.27,-886.84 677.27,-886.84 671.27,-880.84 671.27,-874.84 671.27,-874.84 671.27,-862.84 671.27,-862.84 671.27,-856.84 677.27,-850.84 683.27,-850.84 683.27,-850.84 788.27,-850.84 788.27,-850.84 794.27,-850.84 800.27,-856.84 800.27,-862.84 800.27,-862.84 800.27,-874.84 800.27,-874.84 800.27,-880.84 794.27,-886.84 788.27,-886.84"/>
<text text-anchor="middle" x="735.77" y="-871.84" font-family="Helvetica,sans-Serif" font-size="10.00">BanPhaseStart</text>
<text text-anchor="middle" x="735.77" y="-860.84" font-family="Helvetica,sans-Serif" font-size="10.00">(Decide who bans first)</text>
</g>
<!-- Idle&#45;&gt;BanPhase -->
<g id="edge1" class="edge">
<title>Idle&#45;&gt;BanPhase</title>
<path fill="none" stroke="black" d="M735.77,-945.79C735.77,-932.24 735.77,-913.02 735.77,-897.31"/>
<polygon fill="black" stroke="black" points="739.27,-897.11 735.77,-887.11 732.27,-897.11 739.27,-897.11"/>
<text text-anchor="middle" x="746.77" y="-914.44" font-family="Helvetica,sans-Serif" font-size="8.00">!start</text>
</g>
<!-- WaitBanRed -->
<g id="node3" class="node">
<title>WaitBanRed</title>
<path fill="none" stroke="black" d="M776.77,-791.84C776.77,-791.84 694.77,-791.84 694.77,-791.84 688.77,-791.84 682.77,-785.84 682.77,-779.84 682.77,-779.84 682.77,-767.84 682.77,-767.84 682.77,-761.84 688.77,-755.84 694.77,-755.84 694.77,-755.84 776.77,-755.84 776.77,-755.84 782.77,-755.84 788.77,-761.84 788.77,-767.84 788.77,-767.84 788.77,-779.84 788.77,-779.84 788.77,-785.84 782.77,-791.84 776.77,-791.84"/>
<text text-anchor="middle" x="735.77" y="-771.34" font-family="Helvetica,sans-Serif" font-size="10.00">WaitingForBanRed</text>
</g>
<!-- BanPhase&#45;&gt;WaitBanRed -->
<g id="edge2" class="edge">
<title>BanPhase&#45;&gt;WaitBanRed</title>
<path fill="none" stroke="black" d="M735.77,-850.79C735.77,-837.24 735.77,-818.02 735.77,-802.31"/>
<polygon fill="black" stroke="black" points="739.27,-802.11 735.77,-792.11 732.27,-802.11 739.27,-802.11"/>
<text text-anchor="middle" x="765.77" y="-819.44" font-family="Helvetica,sans-Serif" font-size="8.00">FirstBan = Red</text>
</g>
<!-- WaitBanBlue -->
<g id="node4" class="node">
<title>WaitBanBlue</title>
<path fill="none" stroke="black" d="M782.27,-696.84C782.27,-696.84 697.27,-696.84 697.27,-696.84 691.27,-696.84 685.27,-690.84 685.27,-684.84 685.27,-684.84 685.27,-672.84 685.27,-672.84 685.27,-666.84 691.27,-660.84 697.27,-660.84 697.27,-660.84 782.27,-660.84 782.27,-660.84 788.27,-660.84 794.27,-666.84 794.27,-672.84 794.27,-672.84 794.27,-684.84 794.27,-684.84 794.27,-690.84 788.27,-696.84 782.27,-696.84"/>
<text text-anchor="middle" x="739.77" y="-676.34" font-family="Helvetica,sans-Serif" font-size="10.00">WaitingForBanBlue</text>
</g>
<!-- BanPhase&#45;&gt;WaitBanBlue -->
<g id="edge3" class="edge">
<title>BanPhase&#45;&gt;WaitBanBlue</title>
<path fill="none" stroke="black" d="M778.06,-850.77C788.5,-844.5 798.48,-836.3 804.77,-825.84 812.57,-812.87 806.32,-806.97 806.77,-791.84 807.24,-775.85 811.14,-771.24 806.77,-755.84 801.92,-738.76 797.1,-735.52 785.77,-721.84 780.62,-715.64 774.58,-709.49 768.59,-703.88"/>
<polygon fill="black" stroke="black" points="770.87,-701.23 761.1,-697.11 766.17,-706.42 770.87,-701.23"/>
<text text-anchor="middle" x="839.77" y="-771.94" font-family="Helvetica,sans-Serif" font-size="8.00">FirstBan = Blue</text>
</g>
<!-- WaitBanRed&#45;&gt;WaitBanBlue -->
<g id="edge4" class="edge">
<title>WaitBanRed&#45;&gt;WaitBanBlue</title>
<path fill="none" stroke="black" d="M736.5,-755.79C737.08,-742.24 737.91,-723.02 738.59,-707.31"/>
<polygon fill="black" stroke="black" points="742.09,-707.25 739.02,-697.11 735.1,-706.95 742.09,-707.25"/>
<text text-anchor="middle" x="757.27" y="-724.44" font-family="Helvetica,sans-Serif" font-size="8.00">Red Bans</text>
</g>
<!-- PickPhase -->
<g id="node5" class="node">
<title>PickPhase</title>
<path fill="none" stroke="black" d="M927.27,-513.92C927.27,-513.92 820.27,-513.92 820.27,-513.92 814.27,-513.92 808.27,-507.92 808.27,-501.92 808.27,-501.92 808.27,-489.92 808.27,-489.92 808.27,-483.92 814.27,-477.92 820.27,-477.92 820.27,-477.92 927.27,-477.92 927.27,-477.92 933.27,-477.92 939.27,-483.92 939.27,-489.92 939.27,-489.92 939.27,-501.92 939.27,-501.92 939.27,-507.92 933.27,-513.92 927.27,-513.92"/>
<text text-anchor="middle" x="873.77" y="-498.92" font-family="Helvetica,sans-Serif" font-size="10.00">PickPhaseStart</text>
<text text-anchor="middle" x="873.77" y="-487.92" font-family="Helvetica,sans-Serif" font-size="10.00">(Decide who picks first)</text>
</g>
<!-- WaitBanRed&#45;&gt;PickPhase -->
<g id="edge6" class="edge">
<title>WaitBanRed&#45;&gt;PickPhase</title>
<path fill="none" stroke="black" d="M759.26,-755.84C776.71,-741.94 799.68,-720.73 812.77,-696.84 844.16,-639.56 861.56,-564 869.13,-524.18"/>
<polygon fill="black" stroke="black" points="872.6,-524.63 870.97,-514.17 865.72,-523.37 872.6,-524.63"/>
<text text-anchor="middle" x="851.27" y="-676.94" font-family="Helvetica,sans-Serif" font-size="8.00">Bans Done</text>
</g>
<!-- Panic -->
<g id="node12" class="node">
<title>Panic</title>
<polygon fill="#e74c3c" stroke="black" points="672.32,-556.39 672.32,-575.38 635.09,-588.81 582.44,-588.81 545.22,-575.38 545.22,-556.39 582.44,-542.96 635.09,-542.96 672.32,-556.39"/>
<polygon fill="none" stroke="black" points="676.32,-553.58 676.32,-578.18 635.79,-592.81 581.74,-592.81 541.22,-578.18 541.22,-553.58 581.74,-538.96 635.79,-538.96 676.32,-553.58"/>
<text text-anchor="middle" x="608.77" y="-568.88" font-family="Helvetica,sans-Serif" font-size="10.00" fill="white">MatchOnHold</text>
<text text-anchor="middle" x="608.77" y="-557.88" font-family="Helvetica,sans-Serif" font-size="10.00" fill="white">(PANIC)</text>
</g>
<!-- WaitBanRed&#45;&gt;Panic -->
<g id="edge24" class="edge">
<title>WaitBanRed&#45;&gt;Panic</title>
<path fill="none" stroke="#e74c3c" d="M696.64,-755.76C672.46,-743.08 643.04,-723.4 626.77,-696.84 609.46,-668.6 606.01,-630.51 606.25,-602.87"/>
<polygon fill="#e74c3c" stroke="#e74c3c" points="609.75,-602.92 606.51,-592.83 602.76,-602.74 609.75,-602.92"/>
<text text-anchor="middle" x="646.77" y="-681.44" font-family="Helvetica,sans-Serif" font-size="8.00" fill="#e74c3c">!panic</text>
<text text-anchor="middle" x="646.77" y="-672.44" font-family="Helvetica,sans-Serif" font-size="8.00" fill="#e74c3c">(ANYONE)</text>
</g>
<!-- WaitBanBlue&#45;&gt;WaitBanRed -->
<g id="edge5" class="edge">
<title>WaitBanBlue&#45;&gt;WaitBanRed</title>
<path fill="none" stroke="black" d="M709.01,-696.87C700.17,-703.43 691.62,-711.8 686.77,-721.84 681.94,-731.83 686.62,-741.12 694.7,-748.96"/>
<polygon fill="black" stroke="black" points="692.96,-752.07 702.9,-755.73 697.42,-746.67 692.96,-752.07"/>
<text text-anchor="middle" x="707.27" y="-724.44" font-family="Helvetica,sans-Serif" font-size="8.00">Blue Bans</text>
</g>
<!-- WaitBanBlue&#45;&gt;PickPhase -->
<g id="edge7" class="edge">
<title>WaitBanBlue&#45;&gt;PickPhase</title>
<path fill="none" stroke="black" d="M751.55,-660.43C769.7,-633.81 805.85,-581.6 838.77,-538.92 843.05,-533.37 847.78,-527.52 852.34,-522.01"/>
<polygon fill="black" stroke="black" points="855.09,-524.17 858.82,-514.26 849.72,-519.68 855.09,-524.17"/>
<text text-anchor="middle" x="802.27" y="-624.94" font-family="Helvetica,sans-Serif" font-size="8.00">Bans Done</text>
</g>
<!-- WaitBanBlue&#45;&gt;Panic -->
<g id="edge25" class="edge">
<title>WaitBanBlue&#45;&gt;Panic</title>
<path fill="none" stroke="#e74c3c" d="M717.64,-660.74C708.05,-653.22 696.76,-644.21 686.77,-635.84 672.75,-624.11 657.63,-610.88 644.47,-599.17"/>
<polygon fill="#e74c3c" stroke="#e74c3c" points="646.76,-596.53 636.97,-592.48 642.1,-601.75 646.76,-596.53"/>
<text text-anchor="middle" x="706.77" y="-629.44" font-family="Helvetica,sans-Serif" font-size="8.00" fill="#e74c3c">!panic</text>
<text text-anchor="middle" x="706.77" y="-620.44" font-family="Helvetica,sans-Serif" font-size="8.00" fill="#e74c3c">(ANYONE)</text>
</g>
<!-- WaitPickRed -->
<g id="node6" class="node">
<title>WaitPickRed</title>
<path fill="none" stroke="black" d="M708.27,-244.92C708.27,-244.92 625.27,-244.92 625.27,-244.92 619.27,-244.92 613.27,-238.92 613.27,-232.92 613.27,-232.92 613.27,-220.92 613.27,-220.92 613.27,-214.92 619.27,-208.92 625.27,-208.92 625.27,-208.92 708.27,-208.92 708.27,-208.92 714.27,-208.92 720.27,-214.92 720.27,-220.92 720.27,-220.92 720.27,-232.92 720.27,-232.92 720.27,-238.92 714.27,-244.92 708.27,-244.92"/>
<text text-anchor="middle" x="666.77" y="-224.42" font-family="Helvetica,sans-Serif" font-size="10.00">WaitingForPickRed</text>
</g>
<!-- PickPhase&#45;&gt;WaitPickRed -->
<g id="edge8" class="edge">
<title>PickPhase&#45;&gt;WaitPickRed</title>
<path fill="none" stroke="black" d="M868.3,-477.77C854.51,-436.92 814.75,-332.65 749.77,-269.92 741.59,-262.03 731.63,-255.3 721.5,-249.69"/>
<polygon fill="black" stroke="black" points="723.07,-246.57 712.58,-245.05 719.84,-252.77 723.07,-246.57"/>
<text text-anchor="middle" x="862.77" y="-381.02" font-family="Helvetica,sans-Serif" font-size="8.00">FirstPick = Red</text>
</g>
<!-- WaitPickBlue -->
<g id="node7" class="node">
<title>WaitPickBlue</title>
<path fill="none" stroke="black" d="M569.77,-36C569.77,-36 483.77,-36 483.77,-36 477.77,-36 471.77,-30 471.77,-24 471.77,-24 471.77,-12 471.77,-12 471.77,-6 477.77,0 483.77,0 483.77,0 569.77,0 569.77,0 575.77,0 581.77,-6 581.77,-12 581.77,-12 581.77,-24 581.77,-24 581.77,-30 575.77,-36 569.77,-36"/>
<text text-anchor="middle" x="526.77" y="-15.5" font-family="Helvetica,sans-Serif" font-size="10.00">WaitingForPickBlue</text>
</g>
<!-- PickPhase&#45;&gt;WaitPickBlue -->
<g id="edge9" class="edge">
<title>PickPhase&#45;&gt;WaitPickBlue</title>
<path fill="none" stroke="black" d="M891.53,-477.89C910.77,-457.52 938.77,-421.44 938.77,-383.92 938.77,-383.92 938.77,-383.92 938.77,-116.96 938.77,-82.71 916.39,-76.35 885.77,-61 835.73,-35.93 681.13,-25.4 591.97,-21.33"/>
<polygon fill="black" stroke="black" points="592.11,-17.83 581.96,-20.88 591.8,-24.82 592.11,-17.83"/>
<text text-anchor="middle" x="969.77" y="-277.02" font-family="Helvetica,sans-Serif" font-size="8.00">FirstPick = Blue</text>
</g>
<!-- WaitStart -->
<g id="node8" class="node">
<title>WaitStart</title>
<path fill="none" stroke="black" d="M505.77,-452.92C505.77,-452.92 437.77,-452.92 437.77,-452.92 431.77,-452.92 425.77,-446.92 425.77,-440.92 425.77,-440.92 425.77,-428.92 425.77,-428.92 425.77,-422.92 431.77,-416.92 437.77,-416.92 437.77,-416.92 505.77,-416.92 505.77,-416.92 511.77,-416.92 517.77,-422.92 517.77,-428.92 517.77,-428.92 517.77,-440.92 517.77,-440.92 517.77,-446.92 511.77,-452.92 505.77,-452.92"/>
<text text-anchor="middle" x="471.77" y="-437.92" font-family="Helvetica,sans-Serif" font-size="10.00">WaitingForStart</text>
<text text-anchor="middle" x="471.77" y="-426.92" font-family="Helvetica,sans-Serif" font-size="10.00">(Timer Active)</text>
</g>
<!-- WaitPickRed&#45;&gt;WaitStart -->
<g id="edge10" class="edge">
<title>WaitPickRed&#45;&gt;WaitStart</title>
<path fill="none" stroke="black" d="M666.81,-245.1C666.12,-257.76 663.61,-274.97 655.77,-287.92 646.42,-303.36 637.94,-301.75 623.77,-312.92 581.16,-346.52 532.08,-385.68 501.48,-410.14"/>
<polygon fill="black" stroke="black" points="498.99,-407.65 493.36,-416.63 503.36,-413.12 498.99,-407.65"/>
<text text-anchor="middle" x="652.77" y="-333.52" font-family="Helvetica,sans-Serif" font-size="8.00">Red Pick</text>
<text text-anchor="middle" x="652.77" y="-324.52" font-family="Helvetica,sans-Serif" font-size="8.00">(Prepare Map)</text>
</g>
<!-- Timeout -->
<g id="node11" class="node">
<title>Timeout</title>
<polygon fill="#fadbd8" stroke="black" points="580.95,-108.47 580.95,-127.46 549.21,-140.88 504.32,-140.88 472.58,-127.46 472.58,-108.47 504.32,-95.04 549.21,-95.04 580.95,-108.47"/>
<text text-anchor="middle" x="526.77" y="-120.96" font-family="Helvetica,sans-Serif" font-size="10.00">OnTimeout</text>
<text text-anchor="middle" x="526.77" y="-109.96" font-family="Helvetica,sans-Serif" font-size="10.00">(Paused)</text>
</g>
<!-- WaitPickRed&#45;&gt;Timeout -->
<g id="edge18" class="edge">
<title>WaitPickRed&#45;&gt;Timeout</title>
<path fill="none" stroke="black" d="M613.15,-212.12C595.65,-205.68 577.06,-196.57 562.77,-183.92 552.48,-174.82 544.52,-162.05 538.73,-150.23"/>
<polygon fill="black" stroke="black" points="541.88,-148.7 534.55,-141.05 535.51,-151.6 541.88,-148.7"/>
<text text-anchor="middle" x="580.27" y="-173.02" font-family="Helvetica,sans-Serif" font-size="8.00">!timeout</text>
</g>
<!-- WaitPickRed&#45;&gt;Panic -->
<g id="edge26" class="edge">
<title>WaitPickRed&#45;&gt;Panic</title>
<path fill="none" stroke="#e74c3c" d="M677.68,-245.21C681.69,-252.54 685.74,-261.35 687.77,-269.92 695.83,-304.1 693.1,-314.38 686.77,-348.92 674.65,-414.94 644.73,-487.55 625.67,-529.51"/>
<polygon fill="#e74c3c" stroke="#e74c3c" points="622.42,-528.19 621.42,-538.74 628.78,-531.12 622.42,-528.19"/>
<text text-anchor="middle" x="701.77" y="-385.52" font-family="Helvetica,sans-Serif" font-size="8.00" fill="#e74c3c">!panic</text>
<text text-anchor="middle" x="701.77" y="-376.52" font-family="Helvetica,sans-Serif" font-size="8.00" fill="#e74c3c">(ANYONE)</text>
</g>
<!-- WaitPickBlue&#45;&gt;WaitStart -->
<g id="edge11" class="edge">
<title>WaitPickBlue&#45;&gt;WaitStart</title>
<path fill="none" stroke="black" d="M471.7,-18.77C345.62,-19.73 46.77,-31.06 46.77,-116.96 46.77,-279.92 46.77,-279.92 46.77,-279.92 46.77,-338.62 65.74,-362.91 116.77,-391.92 166.47,-420.18 328.54,-429.52 415.47,-432.53"/>
<polygon fill="black" stroke="black" points="415.57,-436.04 425.68,-432.87 415.8,-429.04 415.57,-436.04"/>
<text text-anchor="middle" x="75.77" y="-229.52" font-family="Helvetica,sans-Serif" font-size="8.00">Blue Pick</text>
<text text-anchor="middle" x="75.77" y="-220.52" font-family="Helvetica,sans-Serif" font-size="8.00">(Prepare Map)</text>
</g>
<!-- WaitPickBlue&#45;&gt;Timeout -->
<g id="edge19" class="edge">
<title>WaitPickBlue&#45;&gt;Timeout</title>
<path fill="none" stroke="black" d="M499.64,-36C488.78,-45.13 479.86,-57.14 484.77,-70 487.23,-76.45 491.04,-82.58 495.37,-88.15"/>
<polygon fill="black" stroke="black" points="492.84,-90.57 502,-95.88 498.15,-86.01 492.84,-90.57"/>
<text text-anchor="middle" x="502.27" y="-63.6" font-family="Helvetica,sans-Serif" font-size="8.00">!timeout</text>
</g>
<!-- WaitPickBlue&#45;&gt;Panic -->
<g id="edge27" class="edge">
<title>WaitPickBlue&#45;&gt;Panic</title>
<path fill="none" stroke="#e74c3c" d="M581.8,-23.86C675.92,-33.71 857.77,-60.1 857.77,-116.96 853.77,-279.92 853.77,-279.92 853.77,-279.92 853.77,-346.21 714.81,-466.23 668.77,-513.92 662.28,-520.64 654.99,-527.4 647.78,-533.7"/>
<polygon fill="#e74c3c" stroke="#e74c3c" points="645.35,-531.17 640.03,-540.33 649.9,-536.49 645.35,-531.17"/>
<text text-anchor="middle" x="873.77" y="-281.52" font-family="Helvetica,sans-Serif" font-size="8.00" fill="#e74c3c">!panic</text>
<text text-anchor="middle" x="873.77" y="-272.52" font-family="Helvetica,sans-Serif" font-size="8.00" fill="#e74c3c">(ANYONE)</text>
</g>
<!-- Playing -->
<g id="node9" class="node">
<title>Playing</title>
<path fill="#d4e6f1" stroke="black" d="M203.27,-348.92C203.27,-348.92 114.27,-348.92 114.27,-348.92 108.27,-348.92 102.27,-342.92 102.27,-336.92 102.27,-336.92 102.27,-324.92 102.27,-324.92 102.27,-318.92 108.27,-312.92 114.27,-312.92 114.27,-312.92 203.27,-312.92 203.27,-312.92 209.27,-312.92 215.27,-318.92 215.27,-324.92 215.27,-324.92 215.27,-336.92 215.27,-336.92 215.27,-342.92 209.27,-348.92 203.27,-348.92"/>
<text text-anchor="middle" x="158.77" y="-333.92" font-family="Helvetica,sans-Serif" font-size="10.00">Playing</text>
<text text-anchor="middle" x="158.77" y="-322.92" font-family="Helvetica,sans-Serif" font-size="10.00">(Waiting for results)</text>
</g>
<!-- WaitStart&#45;&gt;Playing -->
<g id="edge12" class="edge">
<title>WaitStart&#45;&gt;Playing</title>
<path fill="none" stroke="black" d="M425.66,-419.81C402.33,-412.26 373.75,-402.38 348.77,-391.92 332.27,-385.02 329.48,-380.31 312.77,-373.92 284.75,-363.22 252.91,-354.06 225.47,-347.05"/>
<polygon fill="black" stroke="black" points="226.13,-343.61 215.58,-344.57 224.43,-350.4 226.13,-343.61"/>
<text text-anchor="middle" x="377.77" y="-385.52" font-family="Helvetica,sans-Serif" font-size="8.00">Players Ready</text>
<text text-anchor="middle" x="377.77" y="-376.52" font-family="Helvetica,sans-Serif" font-size="8.00">(Match Start)</text>
</g>
<!-- WaitStart&#45;&gt;Timeout -->
<g id="edge20" class="edge">
<title>WaitStart&#45;&gt;Timeout</title>
<path fill="none" stroke="black" d="M472.22,-416.55C473.24,-386.47 476.4,-322.82 485.77,-269.92 493.19,-228 506.9,-180.8 516.41,-150.52"/>
<polygon fill="black" stroke="black" points="519.76,-151.52 519.46,-140.93 513.09,-149.4 519.76,-151.52"/>
<text text-anchor="middle" x="503.27" y="-277.02" font-family="Helvetica,sans-Serif" font-size="8.00">!timeout</text>
</g>
<!-- WaitStart&#45;&gt;Panic -->
<g id="edge28" class="edge">
<title>WaitStart&#45;&gt;Panic</title>
<path fill="none" stroke="#e74c3c" d="M501.74,-453.05C512.94,-460.09 525.44,-468.74 535.77,-477.92 553.49,-493.68 570.68,-513.83 583.92,-530.77"/>
<polygon fill="#e74c3c" stroke="#e74c3c" points="581.22,-533 590.09,-538.79 586.77,-528.73 581.22,-533"/>
<text text-anchor="middle" x="590.77" y="-498.52" font-family="Helvetica,sans-Serif" font-size="8.00" fill="#e74c3c">!panic</text>
<text text-anchor="middle" x="590.77" y="-489.52" font-family="Helvetica,sans-Serif" font-size="8.00" fill="#e74c3c">(ANYONE)</text>
</g>
<!-- Playing&#45;&gt;BanPhase -->
<g id="edge15" class="edge">
<title>Playing&#45;&gt;BanPhase</title>
<path fill="none" stroke="black" d="M111.18,-349.04C76.21,-365.02 34.77,-392.67 34.77,-433.92 34.77,-774.84 34.77,-774.84 34.77,-774.84 34.77,-837.47 480.08,-859.34 660.85,-865.65"/>
<polygon fill="black" stroke="black" points="660.96,-869.15 671.08,-865.99 661.2,-862.15 660.96,-869.15"/>
<text text-anchor="middle" x="72.77" y="-629.44" font-family="Helvetica,sans-Serif" font-size="8.00">Double Ban Round</text>
<text text-anchor="middle" x="72.77" y="-620.44" font-family="Helvetica,sans-Serif" font-size="8.00">(Mid&#45;Match)</text>
</g>
<!-- Playing&#45;&gt;WaitPickRed -->
<g id="edge14" class="edge">
<title>Playing&#45;&gt;WaitPickRed</title>
<path fill="none" stroke="black" d="M215.29,-329.62C289.1,-327.86 421.63,-319.98 529.77,-287.92 546.92,-282.84 549.5,-277.36 565.77,-269.92 581.36,-262.79 598.51,-255.47 614.18,-248.98"/>
<polygon fill="black" stroke="black" points="615.81,-252.09 623.73,-245.05 613.15,-245.62 615.81,-252.09"/>
<text text-anchor="middle" x="608.27" y="-281.52" font-family="Helvetica,sans-Serif" font-size="8.00">Map finished playing</text>
<text text-anchor="middle" x="608.27" y="-272.52" font-family="Helvetica,sans-Serif" font-size="8.00">(Next Pick Red)</text>
</g>
<!-- Playing&#45;&gt;WaitPickBlue -->
<g id="edge13" class="edge">
<title>Playing&#45;&gt;WaitPickBlue</title>
<path fill="none" stroke="black" d="M160.22,-312.85C163.15,-287.62 171.82,-240 196.77,-208.92 266.86,-121.6 388.68,-66.69 463.08,-39.52"/>
<polygon fill="black" stroke="black" points="464.58,-42.7 472.81,-36.03 462.22,-36.11 464.58,-42.7"/>
<text text-anchor="middle" x="280.27" y="-177.52" font-family="Helvetica,sans-Serif" font-size="8.00">Map finished playing</text>
<text text-anchor="middle" x="280.27" y="-168.52" font-family="Helvetica,sans-Serif" font-size="8.00">(Next Pick Blue)</text>
</g>
<!-- Playing&#45;&gt;WaitStart -->
<g id="edge16" class="edge">
<title>Playing&#45;&gt;WaitStart</title>
<path fill="none" stroke="black" d="M140.63,-349.16C129.28,-362.02 118.73,-379.44 129.77,-391.92 148.37,-412.95 323.57,-425.72 415.72,-431.04"/>
<polygon fill="black" stroke="black" points="415.53,-434.53 425.72,-431.61 415.93,-427.55 415.53,-434.53"/>
<text text-anchor="middle" x="216.77" y="-381.02" font-family="Helvetica,sans-Serif" font-size="8.00">Teams are both at match point; Tiebreaker</text>
</g>
<!-- Finish -->
<g id="node10" class="node">
<title>Finish</title>
<path fill="#d5f5e3" stroke="black" d="M290.27,-244.92C290.27,-244.92 227.27,-244.92 227.27,-244.92 221.27,-244.92 215.27,-238.92 215.27,-232.92 215.27,-232.92 215.27,-220.92 215.27,-220.92 215.27,-214.92 221.27,-208.92 227.27,-208.92 227.27,-208.92 290.27,-208.92 290.27,-208.92 296.27,-208.92 302.27,-214.92 302.27,-220.92 302.27,-220.92 302.27,-232.92 302.27,-232.92 302.27,-238.92 296.27,-244.92 290.27,-244.92"/>
<text text-anchor="middle" x="258.77" y="-224.42" font-family="Helvetica,sans-Serif" font-size="10.00">MatchFinished</text>
</g>
<!-- Playing&#45;&gt;Finish -->
<g id="edge17" class="edge">
<title>Playing&#45;&gt;Finish</title>
<path fill="none" stroke="black" d="M174.2,-312.87C185.31,-300.72 200.74,-284.11 214.77,-269.92 220.51,-264.11 226.8,-257.98 232.78,-252.25"/>
<polygon fill="black" stroke="black" points="235.29,-254.69 240.13,-245.26 230.47,-249.62 235.29,-254.69"/>
<text text-anchor="middle" x="294.27" y="-277.02" font-family="Helvetica,sans-Serif" font-size="8.00">Win Condition Met for any of the teams</text>
</g>
<!-- Playing&#45;&gt;Panic -->
<g id="edge29" class="edge">
<title>Playing&#45;&gt;Panic</title>
<path fill="none" stroke="#e74c3c" d="M102.15,-335.3C48.18,-340.76 -21.05,-354.98 6.77,-391.92 70.24,-476.2 383.35,-532.09 531.2,-554.2"/>
<polygon fill="#e74c3c" stroke="#e74c3c" points="530.72,-557.67 541.13,-555.67 531.75,-550.74 530.72,-557.67"/>
<text text-anchor="middle" x="121.77" y="-437.52" font-family="Helvetica,sans-Serif" font-size="8.00" fill="#e74c3c">!panic</text>
<text text-anchor="middle" x="121.77" y="-428.52" font-family="Helvetica,sans-Serif" font-size="8.00" fill="#e74c3c">(ANYONE)</text>
</g>
<!-- Timeout&#45;&gt;WaitPickRed -->
<g id="edge21" class="edge">
<title>Timeout&#45;&gt;WaitPickRed</title>
<path fill="none" stroke="black" d="M559.14,-137.02C572.99,-145.24 589.1,-155.46 602.77,-165.92 616.95,-176.78 631.58,-190.29 643.26,-201.73"/>
<polygon fill="black" stroke="black" points="640.92,-204.34 650.48,-208.91 645.85,-199.38 640.92,-204.34"/>
<text text-anchor="middle" x="640.77" y="-173.02" font-family="Helvetica,sans-Serif" font-size="8.00">Resume</text>
</g>
<!-- Timeout&#45;&gt;WaitPickBlue -->
<g id="edge22" class="edge">
<title>Timeout&#45;&gt;WaitPickBlue</title>
<path fill="none" stroke="black" d="M526.77,-94.73C526.77,-80.47 526.77,-61.84 526.77,-46.63"/>
<polygon fill="black" stroke="black" points="530.27,-46.27 526.77,-36.27 523.27,-46.27 530.27,-46.27"/>
<text text-anchor="middle" x="543.77" y="-63.6" font-family="Helvetica,sans-Serif" font-size="8.00">Resume</text>
</g>
<!-- Timeout&#45;&gt;WaitStart -->
<g id="edge23" class="edge">
<title>Timeout&#45;&gt;WaitStart</title>
<path fill="none" stroke="black" d="M508.85,-141.31C487.64,-169.38 453.56,-219.96 440.77,-269.92 428.52,-317.75 446.31,-374.55 459.57,-407.21"/>
<polygon fill="black" stroke="black" points="456.39,-408.67 463.51,-416.53 462.84,-405.95 456.39,-408.67"/>
<text text-anchor="middle" x="457.77" y="-277.02" font-family="Helvetica,sans-Serif" font-size="8.00">Resume</text>
</g>
<!-- Panic&#45;&gt;WaitStart -->
<g id="edge30" class="edge">
<title>Panic&#45;&gt;WaitStart</title>
<path fill="none" stroke="#27ae60" stroke-width="2" d="M541.02,-553.44C517.72,-546.05 493.75,-533.9 478.77,-513.92 468,-499.56 466.47,-479.25 467.53,-462.96"/>
<polygon fill="#27ae60" stroke="#27ae60" stroke-width="2" points="471.02,-463.23 468.52,-452.94 464.05,-462.55 471.02,-463.23"/>
<text text-anchor="middle" x="502.77" y="-498.52" font-family="Helvetica,sans-Serif" font-size="8.00" fill="#27ae60">!panic_over</text>
<text text-anchor="middle" x="502.77" y="-489.52" font-family="Helvetica,sans-Serif" font-size="8.00" fill="#27ae60">(REF ONLY)</text>
</g>
</g>
</svg>

<g id="navigator" transform="translate(0 0)" fill="#404254">
  <rect fill="#f2f5e9" fill-opacity="0.5" stroke="#606060" stroke-width=".5" x="0" y="0" width="60" height="60"/>
  <use id="zoomplus" xlink:href="#zoomPlus" x="17" y="9" onmousedown="handleZoom(evt,'in')"/>
  <use id="zoomminus" xlink:href="#zoomMin" x="42" y="9" onmousedown="handleZoom(evt,'out')"/>
  <use id="reset" xlink:href="#resetDef" x="30" y="36" onmousedown="handleReset()"/>
   <use id="arrowup" xlink:href="#arrowUp" x="0" y="0" onmousedown="handlePan(0,-1)"/>
  <use id="arrowright" xlink:href="#arrowRight" x="0" y="0" onmousedown="handlePan(1,0)"/>
  <use id="arrowdown" xlink:href="#arrowDown" x="0" y="0" onmousedown="handlePan(0,1)"/>
  <use id="arrowleft" xlink:href="#arrowLeft" x="0" y="0" onmousedown="handlePan(-1,0)"/>
</g>
<svg viewBox="0 0 15 15" width="100%" height="30px" preserveAspectRatio="xMaxYMin meet">
 <g id="arrow_out" transform="scale(0.3 0.3)">
  <a xlink:href="dot_inline_dotgraph_1_org.svg" target="_base">
   <rect id="button" ry="5" rx="5" y="6" x="6" height="38" width="38"
        fill="#f2f5e9" fill-opacity="0.5" stroke="#606060" stroke-width="1.0"/>
   <path id="arrow"
     d="M 11.500037,31.436501 C 11.940474,20.09759 22.043105,11.32322 32.158766,21.979434 L 37.068811,17.246167 C 37.068811,17.246167 37.088388,32 37.088388,32 L 22.160133,31.978069 C 22.160133,31.978069 26.997745,27.140456 26.997745,27.140456 C 18.528582,18.264221 13.291696,25.230495 11.500037,31.436501 z"
     style="fill:#404040;"/>
  </a>
 </g>
</svg>

<style type='text/css'>
<![CDATA[
[data-mouse-over-selected='false'] { opacity: 0.7; }
[data-mouse-over-selected='true']  { opacity: 1.0; }
]]>
</style>
<script type="application/ecmascript"><![CDATA[
document.addEventListener('DOMContentLoaded', (event) => {
  highlightEdges();
  highlightAdjacentNodes();
});
]]></script>
</svg>
