<?xml version="1.0" encoding="UTF-8" standalone="no"?>
<!DOCTYPE svg PUBLIC "-//W3C//DTD SVG 1.1//EN"
 "http://www.w3.org/Graphics/SVG/1.1/DTD/svg11.dtd">
<!-- Generated by graphviz version 2.43.0 (0)
 -->
<!-- Title: Graphical Class Hierarchy Pages: 1 -->
<svg width="242pt" height="64pt"
 viewBox="0.00 0.00 242.00 64.00" xmlns="http://www.w3.org/2000/svg" xmlns:xlink="http://www.w3.org/1999/xlink">
<g id="graph0" class="graph" transform="scale(1 1) rotate(0) translate(4 60)">
<title>Graphical Class Hierarchy</title>
<!-- Node0 -->
<g id="Node000000" class="node">
<title>Node0</title>
<g id="a_Node000000"><a xlink:title=" ">
<polygon fill="#e0e0e0" stroke="#999999" points="59,-37 0,-37 0,-18 59,-18 59,-37"/>
<text text-anchor="middle" x="29.5" y="-25" font-family="Helvetica,sans-Serif" font-size="10.00">IAutoRef</text>
</a>
</g>
</g>
<!-- Node1 -->
<g id="Node000001" class="node">
<title>Node1</title>
<g id="a_Node000001"><a xlink:href="classAutoRefEliminationStage.html" target="_top" xlink:title="Handles the automated refereeing logic for Elimination/Versus matches. Implements a complex State Mac...">
<polygon fill="white" stroke="#666666" points="234,-56 95,-56 95,-37 234,-37 234,-56"/>
<text text-anchor="middle" x="164.5" y="-44" font-family="Helvetica,sans-Serif" font-size="10.00">AutoRefEliminationStage</text>
</a>
</g>
</g>
<!-- Node0&#45;&gt;Node1 -->
<g id="edge2_Node000000_Node000001" class="edge">
<title>Node0&#45;&gt;Node1</title>
<g id="a_edge2_Node000000_Node000001"><a xlink:title=" ">
<path fill="none" stroke="#8b1a1a" d="M69.18,-33.03C77.86,-34.27 87.3,-35.61 96.75,-36.96"/>
<polygon fill="#8b1a1a" stroke="#8b1a1a" points="69.43,-29.53 59.03,-31.58 68.44,-36.46 69.43,-29.53"/>
</a>
</g>
</g>
<!-- Node2 -->
<g id="Node000002" class="node">
<title>Node2</title>
<g id="a_Node000002"><a xlink:href="classAutoRefQualifiersStage.html" target="_top" xlink:title="Handles the automated refereeing logic for Qualifier Lobbies. manages a linear flow of maps with no p...">
<polygon fill="white" stroke="#666666" points="229.5,-19 99.5,-19 99.5,0 229.5,0 229.5,-19"/>
<text text-anchor="middle" x="164.5" y="-7" font-family="Helvetica,sans-Serif" font-size="10.00">AutoRefQualifiersStage</text>
</a>
</g>
</g>
<!-- Node0&#45;&gt;Node2 -->
<g id="edge3_Node000000_Node000002" class="edge">
<title>Node0&#45;&gt;Node2</title>
<g id="a_edge3_Node000000_Node000002"><a xlink:title=" ">
<path fill="none" stroke="#8b1a1a" d="M68.99,-22.29C78.55,-21 89.06,-19.57 99.49,-18.16"/>
<polygon fill="#8b1a1a" stroke="#8b1a1a" points="68.47,-18.83 59.03,-23.64 69.41,-25.77 68.47,-18.83"/>
</a>
</g>
</g>
</g>
</svg>
